<svg xmlns="http://www.w3.org/2000/svg" width="165" viewBox="0 0 165 82.5" height="82.5" version="1.0"><defs><clipPath id="a"><path d="M 0.496094 0 L 164.503906 0 L 164.503906 82.003906 L 0.496094 82.003906 Z M 0.496094 0"/></clipPath><clipPath id="b"><path d="M 8.699219 23 L 41 23 L 41 58 L 8.699219 58 Z M 8.699219 23"/></clipPath><clipPath id="c"><path d="M 133 24 L 156.300781 24 L 156.300781 49 L 133 49 Z M 133 24"/></clipPath><clipPath id="d"><path d="M 72 54 L 82 54 L 82 64.148438 L 72 64.148438 Z M 72 54"/></clipPath></defs><g clip-path="url(#a)" fill="#FFF"><path d="M 0.496094 0 L 164.503906 0 L 164.503906 89.457031 L 0.496094 89.457031 Z M 0.496094 0"/><path d="M 0.496094 0 L 164.503906 0 L 164.503906 82.003906 L 0.496094 82.003906 Z M 0.496094 0"/><path d="M 0.496094 0 L 164.503906 0 L 164.503906 82.003906 L 0.496094 82.003906 Z M 0.496094 0"/></g><path fill="#0A76A5" d="M 44.023438 18 C 41.847656 18 40.085938 19.765625 40.085938 21.949219 C 40.085938 24.128906 41.847656 25.894531 44.023438 25.894531 C 46.199219 25.894531 47.960938 24.128906 47.960938 21.949219 C 47.960938 19.765625 46.199219 18 44.023438 18 Z M 44.023438 18"/><g clip-path="url(#b)"><path fill="#0A76A5" d="M 35.386719 34.601562 L 40.308594 28.113281 C 40.558594 27.78125 40.582031 27.328125 40.359375 26.972656 L 38.269531 23.613281 C 38.085938 23.320312 37.761719 23.140625 37.414062 23.140625 L 28.394531 23.207031 L 23.449219 23.203125 C 23.0625 23.203125 22.890625 23.6875 23.191406 23.933594 L 24.578125 25.050781 C 24.773438 25.210938 25.003906 25.316406 25.25 25.363281 L 33.839844 26.984375 L 23.210938 38.421875 L 9.226562 40.414062 C 8.742188 40.480469 8.539062 41.066406 8.871094 41.425781 L 10.234375 42.894531 C 10.507812 43.183594 10.886719 43.347656 11.285156 43.339844 L 24.785156 43.117188 C 25.285156 43.109375 25.773438 42.96875 26.199219 42.707031 L 29.433594 40.734375 L 36.261719 46.160156 C 36.53125 46.375 36.707031 46.683594 36.753906 47.027344 L 38.050781 56.613281 C 38.113281 57.0625 38.5 57.402344 38.953125 57.402344 L 39.648438 57.402344 C 40.148438 57.402344 40.558594 56.996094 40.558594 56.492188 L 40.597656 45.855469 C 40.601562 45.304688 40.425781 44.769531 40.097656 44.332031 L 34.144531 36.289062 Z M 35.386719 34.601562"/></g><path fill="#014048" d="M 69.875 32.042969 C 69.875 30.085938 68.347656 28.875 66.355469 28.875 L 61.027344 28.875 L 61.027344 35.285156 L 66.355469 35.285156 C 68.347656 35.285156 69.875 34.074219 69.875 32.042969 Z M 69.378906 48.167969 L 64.722656 39.734375 L 61.027344 39.734375 L 61.027344 48.167969 L 55.980469 48.167969 L 55.980469 24.425781 L 67.066406 24.425781 C 72.007812 24.425781 75.0625 27.667969 75.0625 32.078125 C 75.0625 36.246094 72.398438 38.523438 69.839844 39.128906 L 75.203125 48.167969 Z M 69.378906 48.167969"/><path fill="#014048" d="M 78.828125 48.167969 L 78.828125 24.425781 L 95.597656 24.425781 L 95.597656 28.875 L 83.871094 28.875 L 83.871094 33.859375 L 95.347656 33.859375 L 95.347656 38.308594 L 83.871094 38.308594 L 83.871094 43.71875 L 95.597656 43.71875 L 95.597656 48.167969 Z M 78.828125 48.167969"/><path fill="#014048" d="M 113.433594 32.078125 C 113.433594 30.085938 111.90625 28.875 109.914062 28.875 L 104.585938 28.875 L 104.585938 35.246094 L 109.914062 35.246094 C 111.90625 35.246094 113.433594 34.039062 113.433594 32.078125 Z M 99.539062 48.167969 L 99.539062 24.425781 L 110.625 24.425781 C 115.777344 24.425781 118.585938 27.914062 118.585938 32.078125 C 118.585938 36.207031 115.742188 39.695312 110.625 39.695312 L 104.585938 39.695312 L 104.585938 48.167969 Z M 99.539062 48.167969"/><path fill="#014048" d="M 121.535156 48.167969 L 121.535156 24.425781 L 126.613281 24.425781 L 126.613281 43.71875 L 136.632812 43.71875 L 136.632812 48.167969 Z M 121.535156 48.167969"/><g clip-path="url(#c)"><path fill="#014048" d="M 142.140625 48.167969 L 142.140625 38.449219 L 133.042969 24.425781 L 138.800781 24.425781 L 144.664062 33.929688 L 150.527344 24.425781 L 156.246094 24.425781 L 147.1875 38.449219 L 147.1875 48.167969 Z M 142.140625 48.167969"/></g><path fill="#0A76A5" d="M 62.0625 61.0625 C 62.0625 60.324219 61.542969 59.683594 60.566406 59.683594 L 57.707031 59.683594 L 57.707031 62.445312 L 60.566406 62.445312 C 61.5 62.445312 62.0625 61.925781 62.0625 61.0625 Z M 61.867188 56.882812 C 61.867188 56.15625 61.363281 55.609375 60.492188 55.609375 L 57.707031 55.609375 L 57.707031 58.15625 L 60.492188 58.15625 C 61.363281 58.15625 61.867188 57.640625 61.867188 56.882812 Z M 55.976562 63.972656 L 55.976562 54.082031 L 60.832031 54.082031 C 62.652344 54.082031 63.644531 55.207031 63.644531 56.601562 C 63.644531 57.832031 62.84375 58.675781 61.925781 58.871094 C 62.992188 59.03125 63.835938 60.085938 63.835938 61.285156 C 63.835938 62.828125 62.832031 63.972656 60.964844 63.972656 Z M 55.976562 63.972656"/><path fill="#0A76A5" d="M 65.464844 63.972656 L 65.464844 54.082031 L 67.199219 54.082031 L 67.199219 62.445312 L 71.550781 62.445312 L 71.550781 63.972656 Z M 65.464844 63.972656"/><g clip-path="url(#d)"><path fill="#0A76A5" d="M 72.703125 60.054688 L 72.703125 54.082031 L 74.464844 54.082031 L 74.464844 60.011719 C 74.464844 61.582031 75.339844 62.605469 76.984375 62.605469 C 78.625 62.605469 79.5 61.582031 79.5 60.011719 L 79.5 54.082031 L 81.261719 54.082031 L 81.261719 60.054688 C 81.261719 62.503906 79.855469 64.148438 76.984375 64.148438 C 74.125 64.148438 72.703125 62.503906 72.703125 60.054688 Z M 72.703125 60.054688"/></g><path fill="#0A76A5" d="M 83.363281 63.972656 L 83.363281 54.082031 L 90.128906 54.082031 L 90.128906 55.609375 L 85.09375 55.609375 L 85.09375 58.15625 L 90.023438 58.15625 L 90.023438 59.683594 L 85.09375 59.683594 L 85.09375 62.445312 L 90.128906 62.445312 L 90.128906 63.972656 Z M 83.363281 63.972656"/></svg>