<svg xmlns="http://www.w3.org/2000/svg" width="165" viewBox="0 0 165 82.5" height="82.5" version="1.0"><defs><clipPath id="a"><path d="M 0.496094 0 L 164.503906 0 L 164.503906 82.003906 L 0.496094 82.003906 Z M 0.496094 0"/></clipPath></defs><g clip-path="url(#a)" fill="#FFF"><path d="M 0.496094 0 L 164.503906 0 L 164.503906 82.003906 L 0.496094 82.003906 Z M 0.496094 0"/><path d="M 0.496094 0 L 164.503906 0 L 164.503906 82.003906 L 0.496094 82.003906 Z M 0.496094 0"/></g><path fill="#EA4335" d="M 24.355469 34.542969 L 24.441406 34.542969 L 24.390625 34.5 L 27.722656 31.167969 L 27.726562 31.105469 C 24.921875 28.628906 21.035156 27.773438 17.449219 28.851562 C 13.867188 29.929688 11.09375 32.78125 10.109375 36.390625 C 10.167969 36.367188 10.230469 36.347656 10.289062 36.332031 C 11.523438 35.519531 12.996094 35.050781 14.550781 35.039062 C 15.066406 35.039062 15.578125 35.085938 16.078125 35.183594 C 16.101562 35.167969 16.125 35.164062 16.148438 35.167969 C 18.292969 32.808594 21.898438 32.535156 24.371094 34.542969 Z M 24.355469 34.542969"/><path fill="#4285F4" d="M 31.042969 36.390625 C 30.488281 34.351562 29.351562 32.519531 27.773438 31.113281 L 24.390625 34.5 C 25.816406 35.664062 26.632812 37.421875 26.597656 39.269531 L 26.597656 39.867188 C 30.609375 39.867188 30.609375 45.890625 26.597656 45.890625 L 20.578125 45.890625 L 20.566406 45.898438 L 20.566406 50.675781 L 20.542969 50.675781 L 20.578125 50.710938 L 26.597656 50.710938 C 30.046875 50.738281 33.109375 48.5 34.136719 45.203125 C 35.15625 41.90625 33.902344 38.324219 31.042969 36.390625 Z M 31.042969 36.390625"/><path fill="#34A853" d="M 14.550781 50.675781 L 20.566406 50.675781 L 20.566406 45.859375 L 14.550781 45.859375 C 14.125 45.859375 13.699219 45.765625 13.3125 45.589844 L 9.832031 49.070312 L 9.824219 49.105469 C 11.183594 50.132812 12.84375 50.6875 14.550781 50.675781 Z M 14.550781 50.675781"/><path fill="#FBBC05" d="M 14.550781 35.039062 C 11.207031 35.0625 8.242188 37.203125 7.175781 40.371094 C 6.105469 43.542969 7.175781 47.039062 9.824219 49.078125 L 13.316406 45.585938 C 11.398438 44.71875 10.9375 42.203125 12.425781 40.710938 C 13.914062 39.226562 16.429688 39.683594 17.296875 41.601562 L 20.789062 38.109375 C 19.304688 36.167969 16.992188 35.03125 14.550781 35.039062 Z M 14.550781 35.039062"/><path fill="#5F6368" d="M 50.515625 47.3125 C 48.417969 47.339844 46.40625 46.511719 44.929688 45.023438 C 43.417969 43.589844 42.566406 41.589844 42.59375 39.507812 C 42.566406 37.417969 43.417969 35.417969 44.929688 33.992188 C 46.398438 32.484375 48.414062 31.636719 50.515625 31.65625 C 52.511719 31.628906 54.441406 32.40625 55.863281 33.816406 L 54.359375 35.34375 C 53.328125 34.347656 51.945312 33.800781 50.515625 33.824219 C 49.007812 33.800781 47.566406 34.417969 46.539062 35.515625 C 45.472656 36.570312 44.882812 38.027344 44.910156 39.53125 C 44.894531 41.015625 45.480469 42.449219 46.539062 43.496094 C 48.71875 45.667969 52.226562 45.707031 54.449219 43.589844 C 55.117188 42.863281 55.519531 41.9375 55.609375 40.960938 L 50.535156 40.960938 L 50.535156 38.792969 L 57.71875 38.792969 C 57.789062 39.230469 57.816406 39.671875 57.800781 40.113281 C 57.890625 41.960938 57.222656 43.765625 55.949219 45.105469 C 54.535156 46.582031 52.558594 47.382812 50.515625 47.3125 Z M 67.203125 45.875 C 65.199219 47.792969 62.042969 47.792969 60.042969 45.875 C 59.070312 44.933594 58.542969 43.628906 58.578125 42.28125 C 58.542969 40.929688 59.074219 39.625 60.042969 38.6875 C 62.042969 36.769531 65.199219 36.769531 67.203125 38.6875 C 68.171875 39.625 68.699219 40.929688 68.664062 42.28125 C 68.699219 43.628906 68.167969 44.933594 67.195312 45.875 Z M 61.621094 44.460938 C 62.703125 45.617188 64.539062 45.617188 65.621094 44.460938 C 66.183594 43.875 66.488281 43.09375 66.46875 42.28125 C 66.488281 41.464844 66.183594 40.671875 65.621094 40.089844 C 64.527344 38.945312 62.699219 38.945312 61.605469 40.089844 C 61.039062 40.671875 60.734375 41.464844 60.761719 42.28125 C 60.738281 43.09375 61.046875 43.878906 61.613281 44.460938 Z M 78.210938 45.875 C 76.207031 47.792969 73.050781 47.792969 71.046875 45.875 C 70.078125 44.933594 69.550781 43.628906 69.585938 42.28125 C 69.550781 40.929688 70.078125 39.625 71.046875 38.6875 C 73.050781 36.765625 76.207031 36.765625 78.210938 38.6875 C 79.179688 39.625 79.707031 40.929688 79.671875 42.28125 C 79.707031 43.628906 79.179688 44.933594 78.210938 45.875 Z M 72.628906 44.460938 C 73.710938 45.617188 75.546875 45.617188 76.628906 44.460938 C 77.195312 43.875 77.496094 43.09375 77.476562 42.28125 C 77.496094 41.464844 77.195312 40.671875 76.628906 40.089844 C 75.535156 38.945312 73.707031 38.945312 72.613281 40.089844 C 72.046875 40.671875 71.742188 41.464844 71.769531 42.28125 C 71.746094 43.09375 72.054688 43.878906 72.617188 44.460938 Z M 85.445312 51.828125 C 84.433594 51.863281 83.4375 51.546875 82.632812 50.933594 C 81.914062 50.390625 81.34375 49.671875 80.988281 48.847656 L 82.917969 48.046875 C 83.128906 48.542969 83.453125 48.972656 83.875 49.308594 C 84.316406 49.667969 84.882812 49.859375 85.453125 49.839844 C 86.191406 49.882812 86.90625 49.605469 87.421875 49.078125 C 87.933594 48.464844 88.183594 47.679688 88.128906 46.882812 L 88.128906 46.152344 L 88.046875 46.152344 C 87.394531 46.929688 86.414062 47.351562 85.40625 47.296875 C 84.121094 47.300781 82.894531 46.765625 82.023438 45.824219 C 81.078125 44.890625 80.554688 43.609375 80.574219 42.28125 C 80.554688 40.941406 81.074219 39.652344 82.023438 38.710938 C 82.890625 37.765625 84.121094 37.226562 85.40625 37.226562 C 85.941406 37.226562 86.472656 37.347656 86.960938 37.578125 C 87.378906 37.761719 87.757812 38.035156 88.054688 38.378906 L 88.136719 38.378906 L 88.136719 37.578125 L 90.230469 37.578125 L 90.230469 46.585938 C 90.34375 48.027344 89.855469 49.449219 88.890625 50.519531 C 87.964844 51.402344 86.722656 51.875 85.445312 51.828125 Z M 85.601562 45.335938 C 86.332031 45.347656 87.03125 45.039062 87.511719 44.488281 C 88.03125 43.890625 88.308594 43.113281 88.277344 42.320312 C 88.308594 41.515625 88.035156 40.726562 87.511719 40.113281 C 87.03125 39.558594 86.332031 39.25 85.601562 39.269531 C 84.847656 39.253906 84.128906 39.558594 83.617188 40.113281 C 83.058594 40.703125 82.753906 41.492188 82.773438 42.304688 C 82.753906 43.109375 83.0625 43.890625 83.617188 44.46875 C 84.125 45.027344 84.847656 45.34375 85.601562 45.335938 Z M 93.960938 47.007812 L 91.75 47.007812 L 91.75 32.222656 L 93.960938 32.222656 Z M 100.011719 47.3125 C 98.675781 47.347656 97.386719 46.824219 96.453125 45.867188 C 95.507812 44.914062 94.992188 43.621094 95.023438 42.28125 C 94.972656 40.933594 95.472656 39.628906 96.402344 38.660156 C 97.28125 37.734375 98.507812 37.222656 99.78125 37.246094 C 100.363281 37.242188 100.941406 37.351562 101.472656 37.578125 C 101.957031 37.769531 102.398438 38.058594 102.765625 38.421875 C 103.089844 38.730469 103.371094 39.074219 103.613281 39.445312 C 103.8125 39.761719 103.976562 40.09375 104.109375 40.4375 L 104.339844 41.011719 L 97.574219 43.792969 C 97.992188 44.757812 98.960938 45.359375 100.011719 45.316406 C 101.023438 45.316406 101.964844 44.789062 102.488281 43.921875 L 104.179688 45.0625 C 103.75 45.679688 103.195312 46.203125 102.554688 46.601562 C 101.792969 47.082031 100.914062 47.328125 100.011719 47.3125 Z M 97.1875 42.128906 L 101.683594 40.257812 C 101.546875 39.929688 101.300781 39.65625 100.984375 39.488281 C 100.632812 39.289062 100.230469 39.1875 99.824219 39.195312 C 99.140625 39.210938 98.480469 39.496094 98.007812 39.996094 C 97.429688 40.550781 97.128906 41.328125 97.1875 42.128906 Z M 97.1875 42.128906"/><path fill="#5F6368" d="M 115.898438 47.3125 C 114 47.34375 112.171875 46.601562 110.839844 45.253906 C 109.5 43.910156 108.769531 42.078125 108.8125 40.179688 C 108.769531 38.285156 109.5 36.453125 110.839844 35.105469 C 112.171875 33.761719 114 33.019531 115.898438 33.054688 C 117.820312 32.992188 119.667969 33.816406 120.914062 35.285156 L 119.691406 36.46875 C 118.78125 35.320312 117.371094 34.675781 115.90625 34.734375 C 114.496094 34.703125 113.140625 35.246094 112.140625 36.242188 C 111.105469 37.28125 110.550781 38.714844 110.613281 40.179688 C 110.550781 41.652344 111.105469 43.078125 112.140625 44.125 C 113.140625 45.117188 114.496094 45.660156 115.90625 45.628906 C 117.542969 45.648438 119.097656 44.921875 120.132812 43.652344 L 121.347656 44.867188 C 120.714844 45.628906 119.914062 46.242188 119.011719 46.652344 C 118.035156 47.101562 116.972656 47.328125 115.898438 47.3125 Z M 115.898438 47.3125"/><path fill="#5F6368" d="M 122.871094 33.347656 L 124.621094 33.347656 L 124.621094 47.007812 L 122.871094 47.007812 Z M 122.871094 33.347656"/><path fill="#5F6368" d="M 127.476562 38.789062 C 129.390625 36.890625 132.472656 36.890625 134.378906 38.789062 C 135.285156 39.746094 135.769531 41.023438 135.730469 42.339844 C 135.769531 43.65625 135.285156 44.933594 134.378906 45.890625 C 132.472656 47.789062 129.390625 47.789062 127.476562 45.890625 C 126.574219 44.933594 126.085938 43.65625 126.125 42.339844 C 126.085938 41.023438 126.574219 39.746094 127.476562 38.789062 Z M 128.78125 44.792969 C 129.945312 46.019531 131.902344 46.019531 133.066406 44.792969 C 133.6875 44.128906 134.011719 43.246094 133.972656 42.339844 C 134.011719 41.429688 133.6875 40.550781 133.066406 39.886719 C 131.902344 38.65625 129.945312 38.65625 128.78125 39.886719 C 128.164062 40.550781 127.839844 41.429688 127.878906 42.339844 C 127.84375 43.242188 128.167969 44.125 128.789062 44.785156 Z M 128.78125 44.792969"/><path fill="#5F6368" d="M 145.429688 47.007812 L 143.738281 47.007812 L 143.738281 45.714844 L 143.6875 45.714844 C 143.386719 46.207031 142.960938 46.609375 142.453125 46.882812 C 141.925781 47.183594 141.324219 47.347656 140.71875 47.347656 C 139.71875 47.414062 138.742188 47.019531 138.0625 46.28125 C 137.425781 45.46875 137.101562 44.453125 137.160156 43.421875 L 137.160156 37.667969 L 138.910156 37.667969 L 138.910156 43.101562 C 138.910156 44.839844 139.679688 45.714844 141.214844 45.714844 C 141.914062 45.734375 142.574219 45.417969 142.996094 44.867188 C 143.449219 44.289062 143.6875 43.578125 143.675781 42.84375 L 143.675781 37.667969 L 145.429688 37.667969 Z M 145.429688 47.007812"/><path fill="#5F6368" d="M 151.371094 47.3125 C 150.167969 47.316406 149.027344 46.792969 148.246094 45.878906 C 147.367188 44.914062 146.898438 43.644531 146.933594 42.339844 C 146.898438 41.03125 147.367188 39.761719 148.246094 38.792969 C 149.027344 37.882812 150.167969 37.363281 151.371094 37.363281 C 152.035156 37.355469 152.695312 37.511719 153.28125 37.824219 C 153.800781 38.082031 154.238281 38.476562 154.550781 38.964844 L 154.625 38.964844 L 154.550781 37.667969 L 154.550781 33.347656 L 156.300781 33.347656 L 156.300781 47.007812 L 154.609375 47.007812 L 154.609375 45.714844 L 154.53125 45.714844 C 154.21875 46.203125 153.78125 46.59375 153.261719 46.855469 C 152.683594 47.160156 152.03125 47.320312 151.371094 47.3125 Z M 151.660156 45.714844 C 152.457031 45.726562 153.222656 45.390625 153.765625 44.800781 C 154.359375 44.125 154.664062 43.238281 154.609375 42.339844 C 154.664062 41.441406 154.359375 40.554688 153.765625 39.875 C 152.628906 38.628906 150.667969 38.628906 149.539062 39.875 C 148.941406 40.550781 148.636719 41.429688 148.691406 42.328125 C 148.636719 43.230469 148.941406 44.109375 149.539062 44.785156 C 150.074219 45.386719 150.851562 45.726562 151.660156 45.714844 Z M 151.660156 45.714844"/></svg>