<svg xmlns="http://www.w3.org/2000/svg" width="165" viewBox="0 0 165 82.5" height="82.5" version="1.0"><defs><clipPath id="a"><path d="M 0.496094 0 L 164.503906 0 L 164.503906 82.003906 L 0.496094 82.003906 Z M 0.496094 0"/></clipPath><clipPath id="b"><path d="M 8.699219 12.039062 L 35 12.039062 L 35 56 L 8.699219 56 Z M 8.699219 12.039062"/></clipPath><clipPath id="c"><path d="M 50 12.039062 L 77 12.039062 L 77 56 L 50 56 Z M 50 12.039062"/></clipPath><clipPath id="d"><path d="M 131 24 L 156.300781 24 L 156.300781 53 L 131 53 Z M 131 24"/></clipPath><clipPath id="e"><path d="M 38 12.039062 L 47 12.039062 L 47 20 L 38 20 Z M 38 12.039062"/></clipPath><clipPath id="f"><path d="M 8.699219 63 L 12 63 L 12 70.164062 L 8.699219 70.164062 Z M 8.699219 63"/></clipPath><clipPath id="g"><path d="M 17 63 L 21 63 L 21 70.164062 L 17 70.164062 Z M 17 63"/></clipPath><clipPath id="h"><path d="M 27 63 L 30 63 L 30 70.164062 L 27 70.164062 Z M 27 63"/></clipPath><clipPath id="i"><path d="M 36 63 L 41 63 L 41 70.144531 L 36 70.144531 Z M 36 63"/></clipPath><clipPath id="j"><path d="M 54 63 L 58 63 L 58 70.144531 L 54 70.144531 Z M 54 63"/></clipPath><clipPath id="k"><path d="M 64 63 L 71 63 L 71 70.144531 L 64 70.144531 Z M 64 63"/></clipPath><clipPath id="l"><path d="M 77 63 L 79 63 L 79 70.144531 L 77 70.144531 Z M 77 63"/></clipPath><clipPath id="m"><path d="M 84 63 L 89 63 L 89 70.144531 L 84 70.144531 Z M 84 63"/></clipPath><clipPath id="n"><path d="M 94 63 L 98 63 L 98 70.144531 L 94 70.144531 Z M 94 63"/></clipPath><clipPath id="o"><path d="M 112 63 L 116 63 L 116 70.144531 L 112 70.144531 Z M 112 63"/></clipPath><clipPath id="p"><path d="M 122 63 L 125 63 L 125 70.144531 L 122 70.144531 Z M 122 63"/></clipPath><clipPath id="q"><path d="M 131 63 L 136 63 L 136 70.144531 L 131 70.144531 Z M 131 63"/></clipPath><clipPath id="r"><path d="M 142 63 L 146 63 L 146 70.144531 L 142 70.144531 Z M 142 63"/></clipPath><clipPath id="s"><path d="M 152 63 L 156.300781 63 L 156.300781 70.144531 L 152 70.144531 Z M 152 63"/></clipPath></defs><g clip-path="url(#a)" fill="#FFF"><path d="M 0.496094 0 L 164.503906 0 L 164.503906 89.457031 L 0.496094 89.457031 Z M 0.496094 0"/><path d="M 0.496094 0 L 164.503906 0 L 164.503906 82.003906 L 0.496094 82.003906 Z M 0.496094 0"/><path d="M 0.496094 0 L 164.503906 0 L 164.503906 82.003906 L 0.496094 82.003906 Z M 0.496094 0"/></g><g clip-path="url(#b)"><path fill="#E60000" d="M 16.558594 32.796875 C 17.921875 32.046875 19.382812 31.667969 20.9375 31.65625 C 24.460938 31.65625 26.453125 33.367188 26.453125 36.734375 L 26.453125 55.144531 C 28.777344 53.316406 31.398438 52.175781 34.316406 51.722656 L 34.316406 35.203125 C 34.316406 28.476562 30.183594 24.824219 22.964844 24.824219 C 20.722656 24.832031 18.589844 25.304688 16.558594 26.25 L 16.558594 12.164062 L 8.699219 16.710938 L 8.699219 43.554688 C 11.722656 44.304688 14.34375 45.78125 16.558594 47.980469 Z M 16.558594 32.796875"/></g><path fill="#E60000" d="M 46.542969 24.890625 L 38.683594 29.4375 L 38.683594 51.613281 C 41.550781 51.910156 44.167969 52.878906 46.542969 54.519531 Z M 46.542969 24.890625"/><g clip-path="url(#c)"><path fill="#E60000" d="M 58.183594 42 C 58.183594 36.183594 60.789062 32.125 65.621094 32.125 L 65.632812 32.125 C 66.996094 32.125 68.664062 32.425781 69.25 32.710938 L 69.25 45.449219 C 71.457031 44.589844 73.75 44.160156 76.117188 44.160156 C 76.355469 44.160156 76.585938 44.167969 76.816406 44.175781 L 76.816406 12.09375 L 69.246094 16.675781 L 69.246094 25.453125 C 67.800781 25.039062 66.328125 24.832031 64.824219 24.824219 C 55.445312 24.824219 50.476562 31.210938 50.476562 40.679688 C 50.476562 47.894531 53.261719 53.460938 58.539062 55.992188 C 59.363281 53.984375 60.492188 52.167969 61.933594 50.542969 C 59.496094 49.226562 58.183594 46.363281 58.183594 42"/></g><path fill="#E60000" d="M 125.152344 31.949219 C 126.316406 31.941406 127.460938 32.09375 128.585938 32.40625 L 129.988281 25.085938 C 128.667969 24.882812 127.339844 24.789062 126.007812 24.800781 C 121.699219 24.769531 117.53125 25.511719 113.496094 27.023438 L 113.496094 50.597656 C 115.136719 51.152344 116.632812 51.972656 117.984375 53.058594 C 119.335938 54.144531 120.460938 55.429688 121.355469 56.917969 L 121.355469 32.578125 C 122.230469 32.179688 123.730469 31.949219 125.152344 31.949219"/><g clip-path="url(#d)"><path fill="#E60000" d="M 138.496094 48.582031 C 138.394531 48.195312 138.34375 47.800781 138.34375 47.398438 C 138.34375 42.78125 143.480469 42.558594 149.007812 42.273438 L 149.007812 48.007812 C 151.777344 48.75 154.203125 50.109375 156.289062 52.085938 L 156.289062 35.75 C 156.289062 27.878906 151.980469 24.800781 144.136719 24.800781 C 140.21875 24.828125 136.441406 25.570312 132.800781 27.023438 L 134.636719 32.738281 C 137.425781 31.65625 140.3125 31.085938 143.300781 31.03125 C 146.828125 31.03125 149.007812 32.226562 149.007812 35.421875 L 149.007812 36.726562 C 139.695312 37.242188 131.089844 39.1875 131.089844 47.570312 C 131.039062 49.386719 131.484375 51.074219 132.417969 52.632812 C 134.148438 50.839844 136.171875 49.488281 138.496094 48.585938"/></g><path fill="#E60000" d="M 98.207031 36.164062 C 97.992188 36.039062 97.773438 35.929688 97.546875 35.835938 C 97.324219 35.738281 97.09375 35.65625 96.855469 35.585938 C 96.621094 35.519531 96.382812 35.464844 96.140625 35.421875 C 95.898438 35.382812 95.65625 35.359375 95.410156 35.347656 C 95.164062 35.335938 94.921875 35.339844 94.675781 35.359375 C 94.433594 35.378906 94.191406 35.414062 93.949219 35.460938 C 93.710938 35.507812 93.472656 35.570312 93.238281 35.648438 C 93.007812 35.722656 92.777344 35.816406 92.558594 35.917969 C 92.335938 36.023438 92.121094 36.140625 91.910156 36.269531 C 91.703125 36.398438 91.503906 36.542969 91.3125 36.695312 C 91.121094 36.851562 90.941406 37.015625 90.769531 37.191406 C 90.597656 37.367188 90.4375 37.550781 90.289062 37.746094 C 90.140625 37.941406 90.003906 38.144531 89.878906 38.359375 C 89.753906 38.570312 89.640625 38.789062 89.542969 39.011719 C 89.445312 39.238281 89.359375 39.46875 89.289062 39.703125 C 89.214844 39.9375 89.160156 40.179688 89.117188 40.421875 C 89.074219 40.664062 89.046875 40.90625 89.035156 41.152344 C 89.019531 41.398438 89.023438 41.644531 89.039062 41.886719 C 89.054688 42.132812 89.085938 42.378906 89.128906 42.621094 C 89.175781 42.859375 89.234375 43.097656 89.308594 43.332031 C 89.382812 43.566406 89.46875 43.796875 89.570312 44.019531 C 89.671875 44.246094 89.789062 44.460938 89.914062 44.671875 C 90.042969 44.882812 90.179688 45.085938 90.332031 45.277344 C 90.484375 45.472656 90.644531 45.65625 90.820312 45.828125 C 90.992188 46.003906 91.175781 46.164062 91.371094 46.316406 C 91.5625 46.46875 91.761719 46.609375 91.972656 46.734375 C 92.183594 46.863281 92.398438 46.976562 92.621094 47.078125 C 92.847656 47.179688 93.074219 47.269531 93.308594 47.34375 C 93.542969 47.417969 93.78125 47.476562 94.019531 47.519531 C 94.261719 47.566406 94.503906 47.597656 94.75 47.613281 C 94.992188 47.628906 95.238281 47.628906 95.484375 47.617188 C 95.726562 47.601562 95.972656 47.574219 96.210938 47.53125 C 96.453125 47.488281 96.691406 47.433594 96.925781 47.359375 C 97.160156 47.289062 97.390625 47.203125 97.613281 47.105469 C 97.839844 47.007812 98.058594 46.894531 98.269531 46.769531 C 98.480469 46.644531 98.679688 46.503906 98.875 46.355469 C 99.070312 46.207031 99.253906 46.046875 99.429688 45.871094 C 99.605469 45.699219 99.769531 45.519531 99.921875 45.328125 C 100.078125 45.136719 100.21875 44.933594 100.347656 44.726562 C 100.476562 44.515625 100.59375 44.300781 100.695312 44.078125 C 100.800781 43.855469 100.890625 43.625 100.964844 43.394531 C 101.042969 43.160156 101.105469 42.921875 101.152344 42.679688 C 101.199219 42.4375 101.234375 42.195312 101.25 41.949219 C 101.269531 41.707031 101.273438 41.460938 101.261719 41.214844 C 101.253906 40.96875 101.226562 40.726562 101.1875 40.480469 C 101.148438 40.238281 101.09375 40 101.023438 39.765625 C 100.957031 39.527344 100.875 39.296875 100.777344 39.070312 C 100.679688 38.84375 100.570312 38.625 100.449219 38.410156 C 99.902344 37.460938 99.152344 36.710938 98.207031 36.164062"/><path fill="#E60000" d="M 95.144531 33.457031 C 96.410156 33.457031 97.613281 33.742188 98.746094 34.316406 C 99.875 34.886719 100.820312 35.6875 101.574219 36.707031 L 108.675781 32.585938 L 95.148438 24.75 L 95.144531 24.753906 L 81.605469 32.597656 L 88.707031 36.710938 C 89.460938 35.6875 90.40625 34.890625 91.539062 34.316406 C 92.671875 33.742188 93.875 33.457031 95.140625 33.457031"/><path fill="#E60000" d="M 108.886719 49.84375 C 109.101562 49.84375 109.316406 49.851562 109.527344 49.859375 L 109.546875 49.847656 L 109.570312 34.152344 L 102.453125 38.277344 C 102.960938 39.445312 103.179688 40.667969 103.105469 41.9375 C 103.03125 43.210938 102.675781 44.398438 102.039062 45.5 C 101.425781 46.617188 100.585938 47.523438 99.523438 48.222656 C 98.460938 48.921875 97.296875 49.335938 96.03125 49.457031 L 96.03125 57.59375 C 96.652344 56.425781 97.417969 55.359375 98.324219 54.398438 C 99.234375 53.4375 100.257812 52.617188 101.390625 51.933594 C 102.519531 51.25 103.722656 50.734375 104.996094 50.378906 C 106.269531 50.023438 107.566406 49.84375 108.886719 49.84375"/><path fill="#E60000" d="M 94.28125 57.644531 L 94.28125 49.46875 C 93.15625 49.363281 92.109375 49.019531 91.136719 48.4375 C 90.714844 48.191406 90.320312 47.910156 89.949219 47.59375 C 89.578125 47.277344 89.238281 46.929688 88.929688 46.550781 C 88.625 46.167969 88.351562 45.765625 88.121094 45.335938 C 87.886719 44.90625 87.691406 44.460938 87.539062 43.996094 C 87.386719 43.53125 87.277344 43.058594 87.214844 42.574219 C 87.148438 42.089844 87.125 41.601562 87.148438 41.113281 C 87.171875 40.625 87.238281 40.144531 87.347656 39.667969 C 87.457031 39.191406 87.609375 38.730469 87.804688 38.28125 L 80.65625 34.167969 L 80.617188 44.703125 C 82.21875 45.09375 83.742188 45.683594 85.1875 46.476562 C 86.636719 47.265625 87.957031 48.226562 89.15625 49.359375 C 90.351562 50.496094 91.386719 51.765625 92.253906 53.167969 C 93.125 54.570312 93.800781 56.0625 94.285156 57.644531"/><g clip-path="url(#e)"><path fill="#E60000" d="M 42.65625 19.796875 C 43.171875 19.796875 43.664062 19.695312 44.136719 19.5 C 44.609375 19.304688 45.027344 19.023438 45.390625 18.660156 C 45.753906 18.296875 46.035156 17.875 46.230469 17.402344 C 46.425781 16.925781 46.523438 16.433594 46.523438 15.917969 C 46.523438 15.402344 46.425781 14.910156 46.230469 14.433594 C 46.035156 13.957031 45.753906 13.539062 45.390625 13.175781 C 45.027344 12.8125 44.609375 12.53125 44.136719 12.335938 C 43.664062 12.136719 43.171875 12.039062 42.65625 12.039062 C 42.144531 12.039062 41.652344 12.136719 41.179688 12.335938 C 40.703125 12.53125 40.285156 12.8125 39.925781 13.175781 C 39.5625 13.539062 39.28125 13.957031 39.085938 14.433594 C 38.890625 14.910156 38.792969 15.402344 38.792969 15.917969 C 38.792969 16.433594 38.890625 16.925781 39.085938 17.402344 C 39.28125 17.875 39.5625 18.296875 39.925781 18.660156 C 40.285156 19.023438 40.703125 19.304688 41.179688 19.5 C 41.652344 19.695312 42.144531 19.796875 42.65625 19.796875"/></g><g clip-path="url(#f)"><path fill="#808080" d="M 8.699219 63.835938 L 8.699219 70.042969 L 9.921875 70.042969 L 9.921875 67.464844 L 11.046875 67.464844 L 11.046875 66.316406 L 9.921875 66.316406 L 9.921875 64.988281 L 11.167969 64.988281 L 11.167969 63.835938 Z M 8.699219 63.835938"/></g><g clip-path="url(#g)"><path fill="#808080" d="M 17.960938 63.835938 L 17.960938 70.042969 L 20.464844 70.042969 L 20.464844 68.890625 L 19.183594 68.890625 L 19.183594 63.835938 Z M 17.960938 63.835938"/></g><g clip-path="url(#h)"><path fill="#808080" d="M 27.054688 63.835938 L 27.054688 70.042969 L 29.53125 70.042969 L 29.53125 68.890625 L 28.277344 68.890625 L 28.277344 67.492188 L 29.367188 67.492188 L 29.367188 66.339844 L 28.277344 66.339844 L 28.277344 64.988281 L 29.515625 64.988281 L 29.515625 63.835938 Z M 27.054688 63.835938"/></g><g clip-path="url(#i)"><path fill="#808080" d="M 37.425781 63.835938 L 37.777344 64.699219 C 37.898438 65.007812 37.996094 65.324219 38.074219 65.648438 L 38.089844 65.648438 C 38.160156 65.324219 38.253906 65.007812 38.367188 64.699219 L 38.738281 63.835938 L 40.058594 63.835938 L 38.738281 66.839844 L 40.160156 70.042969 L 38.738281 70.042969 L 38.347656 69.054688 C 38.230469 68.742188 38.15625 68.4375 38.074219 68.125 L 38.058594 68.125 C 37.96875 68.4375 37.894531 68.742188 37.789062 69.054688 L 37.425781 70.042969 L 36.046875 70.042969 L 37.359375 66.839844 L 36.046875 63.835938 Z M 37.425781 63.835938"/></g><g clip-path="url(#j)"><path fill="#808080" d="M 57.390625 65.234375 C 57.140625 64.996094 56.847656 64.863281 56.503906 64.839844 C 56.328125 64.824219 56.179688 64.878906 56.054688 65 C 55.929688 65.125 55.875 65.273438 55.886719 65.449219 C 55.886719 66.472656 57.75 66.527344 57.75 68.207031 C 57.75 69.3125 57.117188 70.144531 55.96875 70.144531 C 55.589844 70.144531 55.238281 70.039062 54.917969 69.828125 L 54.917969 68.660156 C 55.191406 68.871094 55.5 68.984375 55.847656 68.988281 C 56.039062 69.003906 56.207031 68.941406 56.347656 68.808594 C 56.488281 68.671875 56.554688 68.507812 56.550781 68.316406 C 56.550781 67.835938 56.175781 67.65625 55.832031 67.410156 C 55.125 66.933594 54.6875 66.472656 54.6875 65.566406 C 54.6875 64.585938 55.253906 63.738281 56.304688 63.738281 C 56.695312 63.738281 57.054688 63.839844 57.390625 64.042969 Z M 57.390625 65.234375"/></g><g clip-path="url(#k)"><path fill="#808080" d="M 65.363281 63.835938 L 65.890625 66.800781 C 65.960938 67.238281 65.980469 67.679688 66.019531 68.117188 L 66.035156 68.117188 C 66.09375 67.679688 66.125 67.238281 66.21875 66.800781 L 66.832031 63.835938 L 67.800781 63.835938 L 68.589844 68.117188 L 68.605469 68.117188 C 68.648438 67.679688 68.65625 67.253906 68.730469 66.816406 L 69.210938 63.835938 L 70.492188 63.835938 L 69.210938 70.042969 L 68.152344 70.042969 L 67.523438 66.769531 C 67.480469 66.386719 67.40625 66.007812 67.347656 65.632812 L 67.332031 65.632812 C 67.269531 66.007812 67.226562 66.386719 67.136719 66.769531 L 66.429688 70.042969 L 65.363281 70.042969 L 64.117188 63.835938 Z M 65.363281 63.835938"/></g><g clip-path="url(#l)"><path fill="#808080" d="M 77.023438 63.835938 L 78.246094 63.835938 L 78.246094 70.042969 L 77.023438 70.042969 Z M 77.023438 63.835938"/></g><g clip-path="url(#m)"><path fill="#808080" d="M 87.691406 65.234375 C 87.445312 64.996094 87.148438 64.863281 86.804688 64.839844 C 86.628906 64.824219 86.480469 64.878906 86.355469 65 C 86.230469 65.125 86.175781 65.273438 86.1875 65.449219 C 86.1875 66.472656 88.050781 66.527344 88.050781 68.207031 C 88.050781 69.3125 87.417969 70.144531 86.269531 70.144531 C 85.890625 70.144531 85.539062 70.039062 85.21875 69.828125 L 85.21875 68.660156 C 85.492188 68.871094 85.800781 68.984375 86.148438 68.988281 C 86.339844 69.003906 86.507812 68.941406 86.648438 68.808594 C 86.789062 68.671875 86.855469 68.507812 86.851562 68.316406 C 86.851562 67.835938 86.476562 67.65625 86.128906 67.410156 C 85.425781 66.933594 84.992188 66.472656 84.992188 65.566406 C 84.992188 64.585938 85.554688 63.738281 86.605469 63.738281 C 86.996094 63.738281 87.355469 63.839844 87.691406 64.042969 Z M 87.691406 65.234375"/></g><g clip-path="url(#n)"><path fill="#808080" d="M 97.332031 65.234375 C 97.085938 64.996094 96.789062 64.863281 96.445312 64.839844 C 96.273438 64.824219 96.121094 64.878906 95.996094 65 C 95.871094 65.125 95.816406 65.273438 95.832031 65.449219 C 95.832031 66.472656 97.695312 66.527344 97.695312 68.207031 C 97.695312 69.3125 97.0625 70.144531 95.914062 70.144531 C 95.53125 70.144531 95.179688 70.039062 94.863281 69.828125 L 94.863281 68.660156 C 95.136719 68.871094 95.445312 68.980469 95.789062 68.988281 C 95.980469 69.003906 96.148438 68.941406 96.289062 68.808594 C 96.429688 68.671875 96.5 68.507812 96.496094 68.316406 C 96.496094 67.835938 96.117188 67.65625 95.773438 67.410156 C 95.066406 66.933594 94.632812 66.472656 94.632812 65.566406 C 94.632812 64.585938 95.199219 63.738281 96.25 63.738281 C 96.640625 63.738281 97 63.839844 97.332031 64.042969 Z M 97.332031 65.234375"/></g><g clip-path="url(#o)"><path fill="#808080" d="M 115.554688 65.003906 C 115.40625 64.960938 115.25 64.941406 115.097656 64.9375 C 114.019531 64.9375 113.550781 65.917969 113.550781 66.875 C 113.550781 67.796875 114.019531 68.933594 115.085938 68.933594 C 115.25 68.925781 115.402344 68.894531 115.554688 68.84375 L 115.554688 70.003906 C 115.375 70.078125 115.183594 70.113281 114.988281 70.109375 C 113.222656 70.109375 112.246094 68.511719 112.246094 66.882812 C 112.246094 65.34375 113.265625 63.761719 114.929688 63.761719 C 115.144531 63.761719 115.355469 63.800781 115.554688 63.875 Z M 115.554688 65.003906"/></g><g clip-path="url(#p)"><path fill="#808080" d="M 123.433594 63.835938 L 123.433594 68.890625 L 124.710938 68.890625 L 124.710938 70.042969 L 122.210938 70.042969 L 122.210938 63.835938 Z M 123.433594 63.835938"/></g><g clip-path="url(#q)"><path fill="#808080" d="M 135.429688 66.941406 C 135.429688 69.269531 134.34375 70.144531 133.253906 70.144531 C 132.164062 70.144531 131.078125 69.269531 131.078125 66.941406 C 131.078125 64.609375 132.164062 63.738281 133.253906 63.738281 C 134.34375 63.738281 135.429688 64.609375 135.429688 66.941406 M 133.253906 69.007812 C 134.066406 69.007812 134.125 67.433594 134.125 66.941406 C 134.125 66.386719 134.066406 64.875 133.253906 64.875 C 132.441406 64.875 132.382812 66.386719 132.382812 66.941406 C 132.382812 67.433594 132.441406 69.007812 133.253906 69.007812"/></g><g clip-path="url(#r)"><path fill="#808080" d="M 143.296875 63.835938 L 143.296875 67.855469 C 143.296875 68.324219 143.242188 69.03125 143.90625 69.03125 C 144.503906 69.03125 144.503906 68.578125 144.511719 68.117188 L 144.511719 63.835938 L 145.734375 63.835938 L 145.734375 68.363281 C 145.734375 69.023438 145.660156 70.140625 143.898438 70.140625 C 142.757812 70.140625 142.074219 69.605469 142.074219 68.445312 L 142.074219 63.835938 Z M 143.296875 63.835938"/></g><g clip-path="url(#s)"><path fill="#808080" d="M 152.601562 70.046875 L 152.601562 63.835938 L 153.527344 63.835938 C 153.742188 63.835938 156.304688 63.523438 156.304688 66.988281 C 156.304688 68.761719 155.621094 70.042969 153.691406 70.042969 Z M 155.082031 66.980469 C 155.082031 66.191406 154.835938 64.941406 153.824219 64.941406 L 153.824219 68.941406 C 154.808594 68.992188 155.082031 67.757812 155.082031 66.980469"/></g></svg>