<svg xmlns="http://www.w3.org/2000/svg" width="165" viewBox="0 0 165 82.5" height="82.5" version="1.0"><defs><clipPath id="a"><path d="M 0.496094 0 L 164.503906 0 L 164.503906 82.003906 L 0.496094 82.003906 Z M 0.496094 0"/></clipPath><clipPath id="b"><path d="M 25.386719 62 L 37 62 L 37 73.800781 L 25.386719 73.800781 Z M 25.386719 62"/></clipPath><clipPath id="c"><path d="M 38 62 L 49 62 L 49 73.800781 L 38 73.800781 Z M 38 62"/></clipPath><clipPath id="d"><path d="M 50 65 L 63 65 L 63 73.800781 L 50 73.800781 Z M 50 65"/></clipPath><clipPath id="e"><path d="M 63 65 L 71 65 L 71 73.800781 L 63 73.800781 Z M 63 65"/></clipPath><clipPath id="f"><path d="M 73 65 L 78 65 L 78 73.800781 L 73 73.800781 Z M 73 65"/></clipPath><clipPath id="g"><path d="M 78 65 L 87 65 L 87 73.800781 L 78 73.800781 Z M 78 65"/></clipPath><clipPath id="h"><path d="M 92 62 L 101 62 L 101 73.800781 L 92 73.800781 Z M 92 62"/></clipPath><clipPath id="i"><path d="M 101 65 L 109 65 L 109 73.800781 L 101 73.800781 Z M 101 65"/></clipPath><clipPath id="j"><path d="M 111 65 L 119 65 L 119 73.800781 L 111 73.800781 Z M 111 65"/></clipPath><clipPath id="k"><path d="M 119 65 L 127 65 L 127 73.800781 L 119 73.800781 Z M 119 65"/></clipPath><clipPath id="l"><path d="M 128 65 L 136 65 L 136 73.800781 L 128 73.800781 Z M 128 65"/></clipPath><clipPath id="m"><path d="M 81 8.199219 L 98 8.199219 L 98 18 L 81 18 Z M 81 8.199219"/></clipPath><clipPath id="n"><path d="M 63 8.199219 L 80 8.199219 L 80 18 L 63 18 Z M 63 8.199219"/></clipPath><clipPath id="o"><path d="M 137 65 L 139.445312 65 L 139.445312 68 L 137 68 Z M 137 65"/></clipPath></defs><g clip-path="url(#a)" fill="#FFF"><path d="M 0.496094 0 L 164.503906 0 L 164.503906 89.457031 L 0.496094 89.457031 Z M 0.496094 0"/><path d="M 0.496094 0 L 164.503906 0 L 164.503906 82.003906 L 0.496094 82.003906 Z M 0.496094 0"/><path d="M 0.496094 0 L 164.503906 0 L 164.503906 82.003906 L 0.496094 82.003906 Z M 0.496094 0"/></g><g clip-path="url(#b)"><path d="M 36.277344 62.808594 L 31.640625 73.558594 L 30.019531 73.558594 L 25.386719 62.808594 L 27.164062 62.808594 L 30.949219 71.546875 L 34.652344 62.808594 Z M 36.277344 62.808594"/></g><g clip-path="url(#c)"><path d="M 38.285156 62.808594 L 39.828125 62.808594 L 43.613281 69.847656 L 47.394531 62.808594 L 48.941406 62.808594 L 48.941406 73.558594 L 47.394531 73.558594 L 47.394531 65.902344 L 43.613281 72.941406 L 39.828125 65.902344 L 39.828125 73.480469 L 38.285156 73.480469 Z M 38.285156 62.808594"/></g><g clip-path="url(#d)"><path d="M 50.714844 65.4375 L 52.261719 65.4375 L 54.113281 71.394531 L 56.121094 65.4375 L 57.433594 65.4375 L 59.441406 71.394531 L 61.296875 65.4375 L 62.839844 65.4375 L 60.136719 73.480469 L 58.746094 73.480469 L 56.816406 67.527344 L 54.886719 73.480469 L 53.496094 73.480469 Z M 50.714844 65.4375"/></g><g clip-path="url(#e)"><path d="M 69.867188 66.210938 C 70.484375 66.832031 70.792969 67.605469 70.792969 68.6875 L 70.792969 73.558594 L 69.328125 73.558594 L 69.328125 72.476562 C 69.09375 72.863281 68.710938 73.171875 68.167969 73.480469 C 67.628906 73.714844 67.164062 73.789062 66.703125 73.789062 C 65.851562 73.789062 65.15625 73.558594 64.539062 73.09375 C 63.921875 72.632812 63.691406 72.011719 63.691406 71.238281 C 63.691406 70.699219 63.84375 70.234375 64.152344 69.847656 C 64.386719 69.460938 64.769531 69.152344 65.3125 68.839844 C 65.851562 68.609375 66.316406 68.53125 66.933594 68.53125 C 67.707031 68.53125 68.476562 68.6875 69.328125 68.996094 L 69.328125 68.765625 C 69.328125 68.144531 69.171875 67.679688 68.863281 67.296875 C 68.554688 66.910156 68.015625 66.675781 67.320312 66.675781 C 66.703125 66.675781 65.929688 66.910156 65.078125 67.296875 L 64.460938 66.136719 C 65.542969 65.59375 66.546875 65.363281 67.472656 65.363281 C 68.554688 65.285156 69.328125 65.59375 69.867188 66.210938 Z M 68.402344 72.089844 C 68.863281 71.859375 69.171875 71.472656 69.25 71.007812 L 69.25 69.925781 C 68.554688 69.691406 67.859375 69.613281 67.011719 69.613281 C 66.46875 69.613281 66.007812 69.769531 65.621094 70 C 65.234375 70.234375 65.003906 70.621094 65.003906 71.007812 C 65.003906 71.472656 65.234375 71.78125 65.542969 72.011719 C 65.851562 72.246094 66.316406 72.398438 66.855469 72.398438 C 67.472656 72.554688 67.9375 72.398438 68.402344 72.089844 Z M 68.402344 72.089844"/></g><g clip-path="url(#f)"><path d="M 75.890625 65.75 C 76.433594 65.4375 76.972656 65.285156 77.746094 65.285156 L 77.746094 66.675781 C 77.125 66.675781 76.664062 66.832031 76.199219 66.984375 C 75.738281 67.21875 75.429688 67.527344 75.195312 67.914062 C 74.964844 68.300781 74.808594 68.765625 74.808594 69.304688 L 74.808594 73.558594 L 73.265625 73.558594 L 73.265625 65.4375 L 74.808594 65.4375 L 74.808594 67.0625 C 74.964844 66.523438 75.351562 66.058594 75.890625 65.75 Z M 75.890625 65.75"/></g><g clip-path="url(#g)"><path d="M 84.386719 72.167969 C 84.847656 71.933594 85.15625 71.78125 85.390625 71.546875 L 86.316406 72.554688 C 86.007812 72.941406 85.46875 73.171875 84.925781 73.480469 C 84.308594 73.714844 83.691406 73.789062 83.074219 73.789062 C 82.378906 73.789062 81.683594 73.558594 80.988281 73.25 C 80.371094 72.863281 79.828125 72.398438 79.445312 71.78125 C 79.058594 71.160156 78.824219 70.386719 78.824219 69.613281 C 78.824219 68.839844 79.058594 68.144531 79.367188 67.449219 C 79.753906 66.832031 80.214844 66.289062 80.832031 65.980469 C 81.453125 65.59375 82.144531 65.4375 82.839844 65.4375 C 83.613281 65.4375 84.308594 65.671875 84.925781 66.058594 C 85.542969 66.445312 85.929688 66.984375 86.316406 67.679688 C 86.625 68.378906 86.78125 69.226562 86.78125 70.15625 L 80.371094 70.15625 C 80.449219 70.851562 80.757812 71.472656 81.21875 71.933594 C 81.683594 72.398438 82.222656 72.554688 82.996094 72.554688 C 83.460938 72.476562 83.921875 72.320312 84.386719 72.167969 Z M 81.296875 67.21875 C 80.832031 67.605469 80.523438 68.222656 80.371094 68.917969 L 85.3125 68.917969 C 85.234375 68.300781 85.003906 67.679688 84.617188 67.296875 C 84.230469 66.832031 83.613281 66.675781 82.996094 66.675781 C 82.300781 66.523438 81.761719 66.753906 81.296875 67.21875 Z M 81.296875 67.21875"/></g><g clip-path="url(#h)"><path d="M 95.582031 64.277344 L 92.109375 64.277344 L 92.109375 62.808594 L 100.679688 62.808594 L 100.679688 64.277344 L 97.203125 64.277344 L 97.203125 73.480469 L 95.660156 73.480469 Z M 95.582031 64.277344"/></g><g clip-path="url(#i)"><path d="M 107.863281 66.210938 C 108.480469 66.832031 108.789062 67.605469 108.789062 68.6875 L 108.789062 73.558594 L 107.242188 73.558594 L 107.242188 72.476562 C 107.011719 72.863281 106.625 73.171875 106.085938 73.480469 C 105.546875 73.714844 105.082031 73.789062 104.617188 73.789062 C 103.769531 73.789062 103.074219 73.558594 102.457031 73.09375 C 101.839844 72.632812 101.605469 72.011719 101.605469 71.238281 C 101.605469 70.699219 101.761719 70.234375 102.070312 69.847656 C 102.300781 69.460938 102.6875 69.152344 103.226562 68.839844 C 103.769531 68.609375 104.230469 68.53125 104.851562 68.53125 C 105.621094 68.53125 106.394531 68.6875 107.242188 68.996094 L 107.242188 68.765625 C 107.242188 68.144531 107.089844 67.679688 106.78125 67.296875 C 106.472656 66.910156 105.929688 66.675781 105.234375 66.675781 C 104.617188 66.675781 103.847656 66.910156 102.996094 67.296875 L 102.378906 66.136719 C 103.460938 65.59375 104.464844 65.363281 105.390625 65.363281 C 106.394531 65.285156 107.242188 65.59375 107.863281 66.210938 Z M 106.316406 72.089844 C 106.78125 71.859375 107.089844 71.472656 107.167969 71.007812 L 107.167969 69.925781 C 106.472656 69.691406 105.777344 69.613281 104.925781 69.613281 C 104.386719 69.613281 103.921875 69.769531 103.539062 70 C 103.152344 70.234375 102.917969 70.621094 102.917969 71.007812 C 102.917969 71.472656 103.152344 71.78125 103.460938 72.011719 C 103.769531 72.246094 104.230469 72.398438 104.773438 72.398438 C 105.390625 72.554688 105.855469 72.398438 106.316406 72.089844 Z M 106.316406 72.089844"/></g><g clip-path="url(#j)"><path d="M 116.742188 65.671875 C 117.207031 65.902344 117.59375 66.289062 117.746094 66.753906 C 117.976562 67.21875 118.132812 67.757812 118.132812 68.378906 L 118.132812 73.480469 L 116.664062 73.480469 L 116.664062 68.609375 C 116.664062 67.992188 116.433594 67.527344 116.125 67.140625 C 115.816406 66.753906 115.351562 66.523438 114.734375 66.523438 C 114.347656 66.523438 113.960938 66.597656 113.652344 66.753906 C 113.34375 66.984375 113.035156 67.140625 112.882812 67.449219 C 112.648438 67.679688 112.574219 68.066406 112.574219 68.453125 L 112.574219 73.480469 L 111.105469 73.480469 L 111.105469 65.4375 L 112.648438 65.4375 L 112.648438 66.597656 C 112.882812 66.210938 113.265625 65.902344 113.652344 65.59375 C 114.117188 65.363281 114.65625 65.207031 115.121094 65.207031 C 115.738281 65.285156 116.277344 65.363281 116.742188 65.671875 Z M 116.742188 65.671875"/></g><g clip-path="url(#k)"><path d="M 119.832031 72.398438 L 124.386719 66.910156 L 119.984375 66.910156 L 119.984375 65.515625 L 126.472656 65.515625 L 126.472656 66.675781 L 121.917969 72.167969 L 126.472656 72.167969 L 126.472656 73.558594 L 119.832031 73.558594 Z M 119.832031 72.398438"/></g><g clip-path="url(#l)"><path d="M 135.121094 65.4375 L 135.121094 73.480469 L 133.578125 73.480469 L 133.578125 72.320312 C 133.34375 72.707031 132.960938 73.019531 132.574219 73.328125 C 132.109375 73.558594 131.570312 73.714844 131.105469 73.714844 C 130.488281 73.714844 130.023438 73.558594 129.5625 73.328125 C 129.097656 73.09375 128.710938 72.707031 128.558594 72.246094 C 128.324219 71.78125 128.171875 71.238281 128.171875 70.621094 L 128.171875 65.4375 L 129.640625 65.4375 L 129.640625 70.3125 C 129.640625 70.929688 129.871094 71.394531 130.179688 71.78125 C 130.488281 72.167969 130.953125 72.398438 131.570312 72.398438 C 131.957031 72.398438 132.339844 72.320312 132.652344 72.167969 C 132.960938 71.933594 133.269531 71.78125 133.421875 71.472656 C 133.65625 71.238281 133.730469 70.851562 133.730469 70.464844 L 133.730469 65.4375 Z M 135.121094 65.4375"/></g><path fill="#0087CD" d="M 87.089844 47.265625 L 73.421875 47.265625 C 72.878906 47.265625 72.339844 47.035156 72.03125 46.648438 L 63.457031 35.898438 C 63.148438 35.511719 62.996094 34.890625 63.148438 34.351562 L 66.46875 21.125 C 66.625 20.664062 66.933594 20.199219 67.398438 19.964844 L 79.445312 13.933594 C 79.90625 13.703125 80.523438 13.703125 80.988281 13.933594 L 93.265625 19.964844 C 93.730469 20.199219 94.039062 20.585938 94.269531 21.203125 L 97.4375 34.429688 C 97.589844 34.96875 97.4375 35.511719 97.128906 35.976562 L 88.402344 46.648438 C 88.015625 47.035156 87.550781 47.265625 87.089844 47.265625 Z M 73.496094 45.488281 L 87.011719 45.488281 L 95.660156 34.738281 L 92.496094 21.511719 L 80.292969 15.480469 L 68.167969 21.511719 L 64.925781 34.738281 Z M 73.496094 45.488281"/><g clip-path="url(#m)"><path fill="#00B4D1" d="M 95.890625 17.492188 L 97.4375 16.253906 L 81.140625 8.210938 L 81.140625 10.222656 Z M 95.890625 17.492188"/></g><path fill="#7AB729" d="M 60.214844 36.4375 L 58.285156 36.824219 L 69.636719 51.132812 L 70.484375 49.355469 Z M 60.214844 36.4375"/><g clip-path="url(#n)"><path fill="#00B4D1" d="M 79.367188 10.222656 L 79.367188 8.210938 L 63.304688 16.253906 L 64.847656 17.492188 Z M 79.367188 10.222656"/></g><path fill="#223A7F" d="M 63.765625 19.039062 L 62.144531 17.648438 L 57.898438 35.046875 L 59.90625 34.660156 Z M 63.765625 19.039062"/><path fill="#223A7F" d="M 100.601562 34.660156 L 102.6875 35.046875 L 98.519531 17.648438 L 96.972656 18.960938 Z M 100.601562 34.660156"/><path fill="#7AB729" d="M 100.214844 36.4375 L 89.867188 49.355469 L 90.796875 51.132812 L 102.222656 36.824219 Z M 100.214844 36.4375"/><path fill="#00B4D1" d="M 72.105469 50.050781 L 71.179688 51.90625 L 89.171875 51.90625 L 88.246094 50.050781 Z M 72.105469 50.050781"/><g><g><g><path d="M 0.359375 0 L 0.359375 -0.0625 L 0.59375 -0.09375 L 0.59375 -1.421875 L 0.53125 -1.421875 C 0.4375 -1.421875 0.351562 -1.414062 0.28125 -1.40625 C 0.21875 -1.40625 0.171875 -1.398438 0.140625 -1.390625 L 0.125 -1.15625 L 0.046875 -1.15625 L 0.046875 -1.515625 L 1.375 -1.515625 L 1.375 -1.15625 L 1.296875 -1.15625 L 1.265625 -1.390625 C 1.253906 -1.398438 1.234375 -1.40625 1.203125 -1.40625 C 1.179688 -1.40625 1.148438 -1.40625 1.109375 -1.40625 C 1.078125 -1.40625 1.039062 -1.40625 1 -1.40625 C 0.957031 -1.414062 0.914062 -1.421875 0.875 -1.421875 L 0.8125 -1.421875 L 0.8125 -0.09375 L 1.046875 -0.0625 L 1.046875 0 Z M 0.359375 0" transform="translate(135.894 67.088)"/></g></g></g><g clip-path="url(#o)"><g><g><g><path d="M 0.96875 0 L 0.9375 0 L 0.375 -1.296875 L 0.375 -0.09375 L 0.578125 -0.0625 L 0.578125 0 L 0.0625 0 L 0.0625 -0.0625 L 0.265625 -0.09375 L 0.265625 -1.421875 L 0.0625 -1.453125 L 0.0625 -1.515625 L 0.53125 -1.515625 L 1.015625 -0.359375 L 1.5625 -1.515625 L 1.984375 -1.515625 L 1.984375 -1.453125 L 1.796875 -1.421875 L 1.796875 -0.09375 L 1.984375 -0.0625 L 1.984375 0 L 1.375 0 L 1.375 -0.0625 L 1.578125 -0.09375 L 1.578125 -1.296875 Z M 0.96875 0" transform="translate(137.308 67.088)"/></g></g></g></g></svg>