<svg xmlns="http://www.w3.org/2000/svg" width="165" viewBox="0 0 165 82.5" height="82.5" version="1.0"><defs><clipPath id="a"><path d="M 0.496094 0 L 164.503906 0 L 164.503906 82.003906 L 0.496094 82.003906 Z M 0.496094 0"/></clipPath></defs><g clip-path="url(#a)" fill="#FFF"><path d="M 0.496094 0 L 164.503906 0 L 164.503906 82.003906 L 0.496094 82.003906 Z M 0.496094 0"/><path d="M 0.496094 0 L 164.503906 0 L 164.503906 82.003906 L 0.496094 82.003906 Z M 0.496094 0"/></g><path fill="#027CC9" d="M 46.9375 32.859375 C 46.9375 40.835938 40.375 47.398438 32.398438 47.398438 C 24.425781 47.398438 17.863281 40.835938 17.863281 32.859375 C 17.863281 24.882812 24.425781 18.320312 32.398438 18.320312 C 40.375 18.320312 46.9375 24.882812 46.9375 32.859375 Z M 46.9375 32.859375"/><path fill="#EDFAFD" d="M 33.714844 24.792969 L 29.140625 24.792969 C 28.960938 24.792969 28.800781 24.90625 28.742188 25.078125 L 23.640625 40.34375 C 23.550781 40.613281 23.753906 40.890625 24.039062 40.890625 L 28.753906 40.890625 C 28.933594 40.890625 29.09375 40.777344 29.148438 40.605469 L 34.113281 25.335938 C 34.199219 25.066406 34 24.792969 33.714844 24.792969 Z M 33.714844 24.792969"/><path fill="#EDFAFD" d="M 40.765625 24.792969 L 36.191406 24.792969 C 36.011719 24.792969 35.851562 24.90625 35.792969 25.078125 L 30.695312 40.34375 C 30.601562 40.613281 30.804688 40.890625 31.089844 40.890625 L 35.804688 40.890625 C 35.984375 40.890625 36.144531 40.777344 36.203125 40.605469 L 41.164062 25.335938 C 41.25 25.066406 41.050781 24.792969 40.765625 24.792969 Z M 40.765625 24.792969"/><path fill="#027CC9" d="M 73.238281 45.378906 L 69.429688 45.378906 L 66.792969 38.265625 L 55.164062 38.265625 L 52.53125 45.378906 L 48.902344 45.378906 L 58.6875 19.859375 L 63.453125 19.859375 Z M 65.691406 35.351562 L 60.980469 22.824219 L 56.25 35.351562 Z M 65.691406 35.351562"/><path fill="#027CC9" d="M 97.59375 37.53125 C 97.59375 38.796875 97.339844 39.917969 96.835938 40.886719 C 96.328125 41.859375 95.648438 42.660156 94.792969 43.289062 C 93.785156 44.042969 92.671875 44.578125 91.453125 44.898438 C 90.25 45.21875 88.714844 45.378906 86.851562 45.378906 L 77.316406 45.378906 L 77.316406 19.859375 L 85.28125 19.859375 C 87.242188 19.859375 88.710938 19.929688 89.683594 20.066406 C 90.660156 20.203125 91.59375 20.488281 92.484375 20.921875 C 93.472656 21.414062 94.1875 22.046875 94.632812 22.824219 C 95.078125 23.589844 95.300781 24.511719 95.300781 25.585938 C 95.300781 26.796875 94.976562 27.828125 94.324219 28.6875 C 93.675781 29.53125 92.808594 30.210938 91.726562 30.726562 L 91.726562 30.863281 C 93.542969 31.21875 94.976562 31.976562 96.023438 33.140625 C 97.070312 34.296875 97.59375 35.757812 97.59375 37.53125 Z M 91.582031 26.03125 C 91.582031 25.414062 91.472656 24.894531 91.257812 24.46875 C 91.039062 24.046875 90.691406 23.707031 90.207031 23.441406 C 89.644531 23.132812 88.957031 22.945312 88.152344 22.878906 C 87.34375 22.796875 86.34375 22.757812 85.152344 22.757812 L 80.894531 22.757812 L 80.894531 30.125 L 85.515625 30.125 C 86.632812 30.125 87.523438 30.074219 88.1875 29.972656 C 88.847656 29.855469 89.460938 29.628906 90.027344 29.285156 C 90.59375 28.945312 90.992188 28.503906 91.21875 27.96875 C 91.460938 27.417969 91.582031 26.773438 91.582031 26.03125 Z M 93.875 37.667969 C 93.875 36.636719 93.710938 35.820312 93.386719 35.214844 C 93.0625 34.609375 92.472656 34.097656 91.617188 33.671875 C 91.039062 33.386719 90.335938 33.207031 89.503906 33.125 C 88.6875 33.035156 87.6875 32.988281 86.507812 32.988281 L 80.894531 32.988281 L 80.894531 42.480469 L 85.625 42.480469 C 87.1875 42.480469 88.46875 42.40625 89.46875 42.257812 C 90.46875 42.097656 91.285156 41.8125 91.925781 41.402344 C 92.597656 40.957031 93.089844 40.449219 93.40625 39.878906 C 93.71875 39.304688 93.875 38.570312 93.875 37.667969 Z M 93.875 37.667969"/><path fill="#027CC9" d="M 119.671875 45.378906 L 102.667969 45.378906 L 102.667969 19.859375 L 106.242188 19.859375 L 106.242188 42.363281 L 119.671875 42.363281 Z M 119.671875 45.378906"/><path fill="#027CC9" d="M 142.78125 38.09375 C 142.78125 39.089844 142.535156 40.070312 142.042969 41.042969 C 141.5625 42.015625 140.878906 42.835938 140.003906 43.511719 C 139.039062 44.242188 137.914062 44.8125 136.625 45.222656 C 135.351562 45.636719 133.808594 45.839844 132.003906 45.839844 C 130.066406 45.839844 128.320312 45.667969 126.769531 45.328125 C 125.226562 44.984375 123.65625 44.476562 122.054688 43.800781 L 122.054688 39.550781 L 122.308594 39.550781 C 123.667969 40.625 125.238281 41.453125 127.019531 42.035156 C 128.800781 42.621094 130.476562 42.910156 132.039062 42.910156 C 134.253906 42.910156 135.976562 42.515625 137.203125 41.726562 C 138.441406 40.941406 139.0625 39.886719 139.0625 38.574219 C 139.0625 37.445312 138.769531 36.609375 138.179688 36.074219 C 137.601562 35.535156 136.714844 35.117188 135.523438 34.820312 C 134.621094 34.59375 133.640625 34.40625 132.582031 34.257812 C 131.535156 34.109375 130.421875 33.917969 129.242188 33.691406 C 126.859375 33.210938 125.089844 32.394531 123.933594 31.238281 C 122.789062 30.074219 122.21875 28.5625 122.21875 26.699219 C 122.21875 24.5625 123.167969 22.8125 125.070312 21.453125 C 126.972656 20.082031 129.386719 19.398438 132.3125 19.398438 C 134.199219 19.398438 135.933594 19.570312 137.511719 19.910156 C 139.085938 20.253906 140.484375 20.675781 141.699219 21.179688 L 141.699219 25.191406 L 141.445312 25.191406 C 140.421875 24.367188 139.074219 23.6875 137.402344 23.152344 C 135.742188 22.601562 134.039062 22.328125 132.292969 22.328125 C 130.378906 22.328125 128.839844 22.707031 127.671875 23.460938 C 126.515625 24.214844 125.9375 25.183594 125.9375 26.371094 C 125.9375 27.433594 126.226562 28.269531 126.804688 28.875 C 127.382812 29.480469 128.398438 29.941406 129.855469 30.261719 C 130.625 30.421875 131.722656 30.617188 133.140625 30.847656 C 134.5625 31.074219 135.765625 31.308594 136.753906 31.546875 C 138.75 32.050781 140.253906 32.8125 141.265625 33.828125 C 142.277344 34.84375 142.78125 36.265625 142.78125 38.09375 Z M 142.78125 38.09375"/><path fill="#027CC9" d="M 99.074219 50.597656 L 93.429688 50.597656 L 93.429688 63.441406 L 91.328125 63.441406 L 91.328125 50.597656 L 85.683594 50.597656 L 85.683594 48.875 L 99.074219 48.875 Z M 99.074219 50.597656"/><path fill="#027CC9" d="M 108.621094 58.167969 L 99.890625 58.167969 C 99.890625 58.839844 100 59.425781 100.21875 59.929688 C 100.4375 60.425781 100.738281 60.832031 101.121094 61.152344 C 101.488281 61.464844 101.921875 61.699219 102.425781 61.859375 C 102.933594 62.015625 103.496094 62.09375 104.101562 62.09375 C 104.910156 62.09375 105.71875 61.945312 106.53125 61.652344 C 107.351562 61.351562 107.9375 61.058594 108.28125 60.769531 L 108.390625 60.769531 L 108.390625 62.777344 C 107.71875 63.039062 107.03125 63.257812 106.332031 63.433594 C 105.628906 63.609375 104.894531 63.695312 104.125 63.695312 C 102.15625 63.695312 100.621094 63.207031 99.519531 62.230469 C 98.414062 61.246094 97.863281 59.847656 97.863281 58.042969 C 97.863281 56.253906 98.390625 54.835938 99.445312 53.785156 C 100.503906 52.734375 101.898438 52.210938 103.625 52.210938 C 105.222656 52.210938 106.453125 52.640625 107.316406 53.5 C 108.1875 54.363281 108.621094 55.585938 108.621094 57.171875 Z M 106.679688 56.761719 C 106.671875 55.792969 106.410156 55.046875 105.886719 54.519531 C 105.367188 53.992188 104.578125 53.726562 103.519531 53.726562 C 102.449219 53.726562 101.597656 54.015625 100.960938 54.597656 C 100.332031 55.179688 99.976562 55.898438 99.890625 56.761719 Z M 106.679688 56.761719"/><path fill="#027CC9" d="M 120.855469 63.441406 L 118.871094 63.441406 L 118.871094 62.277344 C 118.695312 62.390625 118.453125 62.546875 118.148438 62.746094 C 117.851562 62.945312 117.5625 63.101562 117.28125 63.21875 C 116.949219 63.367188 116.566406 63.492188 116.132812 63.589844 C 115.703125 63.695312 115.195312 63.746094 114.617188 63.746094 C 113.546875 63.746094 112.644531 63.417969 111.902344 62.765625 C 111.15625 62.113281 110.785156 61.285156 110.785156 60.273438 C 110.785156 59.445312 110.976562 58.773438 111.359375 58.265625 C 111.75 57.75 112.300781 57.347656 113.015625 57.054688 C 113.738281 56.761719 114.601562 56.5625 115.613281 56.457031 C 116.625 56.351562 117.710938 56.273438 118.871094 56.222656 L 118.871094 55.9375 C 118.871094 55.519531 118.789062 55.175781 118.628906 54.902344 C 118.472656 54.625 118.246094 54.410156 117.949219 54.253906 C 117.664062 54.105469 117.324219 54.003906 116.929688 53.953125 C 116.535156 53.898438 116.121094 53.875 115.6875 53.875 C 115.164062 53.875 114.582031 53.9375 113.9375 54.070312 C 113.292969 54.191406 112.628906 54.375 111.941406 54.617188 L 111.835938 54.617188 L 111.835938 52.75 C 112.226562 52.648438 112.789062 52.542969 113.523438 52.425781 C 114.261719 52.308594 114.984375 52.25 115.699219 52.25 C 116.535156 52.25 117.257812 52.3125 117.875 52.445312 C 118.496094 52.570312 119.035156 52.785156 119.488281 53.089844 C 119.933594 53.390625 120.273438 53.777344 120.503906 54.253906 C 120.738281 54.730469 120.855469 55.320312 120.855469 56.027344 Z M 118.871094 60.75 L 118.871094 57.707031 C 118.261719 57.742188 117.546875 57.789062 116.71875 57.855469 C 115.898438 57.921875 115.246094 58.015625 114.765625 58.140625 C 114.191406 58.289062 113.730469 58.523438 113.375 58.84375 C 113.023438 59.15625 112.84375 59.589844 112.84375 60.144531 C 112.84375 60.769531 113.050781 61.246094 113.460938 61.5625 C 113.871094 61.878906 114.496094 62.035156 115.339844 62.035156 C 116.039062 62.035156 116.679688 61.910156 117.257812 61.660156 C 117.839844 61.40625 118.375 61.105469 118.871094 60.75 Z M 118.871094 60.75"/><path fill="#027CC9" d="M 141.992188 63.441406 L 139.996094 63.441406 L 139.996094 57.21875 C 139.996094 56.75 139.972656 56.296875 139.921875 55.859375 C 139.878906 55.421875 139.785156 55.074219 139.636719 54.8125 C 139.472656 54.53125 139.238281 54.320312 138.933594 54.175781 C 138.632812 54.03125 138.191406 53.960938 137.621094 53.960938 C 137.058594 53.960938 136.5 54.09375 135.941406 54.351562 C 135.382812 54.605469 134.824219 54.933594 134.265625 55.332031 C 134.289062 55.480469 134.304688 55.65625 134.320312 55.859375 C 134.332031 56.054688 134.339844 56.25 134.339844 56.445312 L 134.339844 63.441406 L 132.347656 63.441406 L 132.347656 57.21875 C 132.347656 56.738281 132.320312 56.28125 132.273438 55.851562 C 132.230469 55.414062 132.132812 55.0625 131.984375 54.804688 C 131.824219 54.523438 131.589844 54.3125 131.285156 54.175781 C 130.980469 54.03125 130.542969 53.960938 129.96875 53.960938 C 129.425781 53.960938 128.875 54.085938 128.324219 54.332031 C 127.78125 54.582031 127.234375 54.898438 126.691406 55.28125 L 126.691406 63.441406 L 124.695312 63.441406 L 124.695312 52.511719 L 126.691406 52.511719 L 126.691406 53.726562 C 127.3125 53.25 127.933594 52.878906 128.546875 52.609375 C 129.171875 52.34375 129.832031 52.210938 130.53125 52.210938 C 131.339844 52.210938 132.019531 52.367188 132.578125 52.679688 C 133.144531 52.992188 133.566406 53.425781 133.84375 53.980469 C 134.648438 53.355469 135.382812 52.90625 136.050781 52.628906 C 136.714844 52.351562 137.425781 52.210938 138.179688 52.210938 C 139.484375 52.210938 140.441406 52.574219 141.054688 53.304688 C 141.679688 54.03125 141.992188 55.042969 141.992188 56.347656 Z M 141.992188 63.441406"/></svg>