<svg xmlns="http://www.w3.org/2000/svg" width="165" viewBox="0 0 165 82.5" height="82.5" version="1.0"><defs><clipPath id="a"><path d="M 0.496094 0 L 164.503906 0 L 164.503906 82.003906 L 0.496094 82.003906 Z M 0.496094 0"/></clipPath><clipPath id="b"><path d="M 35 9.839844 L 130 9.839844 L 130 43 L 35 43 Z M 35 9.839844"/></clipPath><clipPath id="c"><path d="M 30.5625 51 L 126 51 L 126 72.460938 L 30.5625 72.460938 Z M 30.5625 51"/></clipPath><clipPath id="d"><path d="M 114 48 L 134.1875 48 L 134.1875 69 L 114 69 Z M 114 48"/></clipPath><clipPath id="e"><path d="M 35 9.839844 L 130 9.839844 L 130 43 L 35 43 Z M 35 9.839844"/></clipPath><clipPath id="f"><path d="M 30.5625 51 L 126 51 L 126 72.460938 L 30.5625 72.460938 Z M 30.5625 51"/></clipPath><clipPath id="g"><path d="M 114 48 L 134.1875 48 L 134.1875 69 L 114 69 Z M 114 48"/></clipPath></defs><g clip-path="url(#a)" fill="#FFF"><path d="M 0.496094 0 L 164.503906 0 L 164.503906 82.003906 L 0.496094 82.003906 Z M 0.496094 0"/><path d="M 0.496094 0 L 164.503906 0 L 164.503906 82.003906 L 0.496094 82.003906 Z M 0.496094 0"/></g><g clip-path="url(#b)"><path fill="#252F3E" d="M 59.765625 32.488281 C 59.730469 33.539062 59.863281 34.566406 60.160156 35.578125 C 60.460938 36.4375 60.835938 37.265625 61.277344 38.0625 C 61.429688 38.300781 61.515625 38.566406 61.527344 38.855469 C 61.480469 39.308594 61.257812 39.648438 60.863281 39.875 L 58.792969 41.335938 C 58.515625 41.53125 58.214844 41.636719 57.878906 41.652344 C 57.472656 41.636719 57.132812 41.476562 56.863281 41.171875 C 56.378906 40.6875 55.964844 40.152344 55.621094 39.5625 C 55.273438 38.980469 54.921875 38.285156 54.5625 37.476562 C 53.957031 38.238281 53.273438 38.921875 52.511719 39.527344 C 51.746094 40.132812 50.925781 40.644531 50.050781 41.058594 C 49.171875 41.476562 48.257812 41.785156 47.308594 41.992188 C 46.359375 42.199219 45.398438 42.292969 44.429688 42.277344 C 43.164062 42.347656 41.933594 42.167969 40.742188 41.734375 C 39.546875 41.304688 38.484375 40.65625 37.550781 39.792969 C 36.683594 38.90625 36.03125 37.882812 35.589844 36.71875 C 35.152344 35.558594 34.960938 34.355469 35.019531 33.113281 C 34.964844 31.761719 35.203125 30.460938 35.734375 29.21875 C 36.261719 27.976562 37.035156 26.90625 38.046875 26.015625 C 39.246094 25.066406 40.574219 24.355469 42.03125 23.894531 C 43.488281 23.429688 44.976562 23.238281 46.503906 23.324219 C 47.722656 23.328125 48.941406 23.417969 50.148438 23.59375 C 51.421875 23.777344 52.738281 24.027344 54.109375 24.347656 L 54.109375 21.800781 C 54.207031 20.800781 54.117188 19.824219 53.832031 18.859375 C 53.550781 17.898438 53.09375 17.027344 52.46875 16.246094 C 51.671875 15.628906 50.785156 15.179688 49.816406 14.902344 C 48.84375 14.625 47.859375 14.539062 46.855469 14.640625 C 45.601562 14.648438 44.363281 14.800781 43.144531 15.101562 C 41.878906 15.40625 40.644531 15.800781 39.433594 16.289062 C 39.046875 16.46875 38.644531 16.625 38.234375 16.75 L 37.695312 16.75 C 37.210938 16.75 36.96875 16.386719 36.96875 15.664062 L 36.96875 14.015625 C 36.9375 13.585938 37.023438 13.183594 37.21875 12.804688 C 37.480469 12.476562 37.804688 12.234375 38.191406 12.074219 C 39.582031 11.402344 41.027344 10.878906 42.523438 10.507812 C 44.285156 10.050781 46.074219 9.828125 47.890625 9.839844 C 49.519531 9.695312 51.113281 9.867188 52.671875 10.355469 C 54.234375 10.839844 55.644531 11.609375 56.90625 12.65625 C 57.941406 13.824219 58.707031 15.148438 59.203125 16.632812 C 59.699219 18.113281 59.886719 19.636719 59.765625 21.195312 Z M 45.777344 37.769531 C 47 37.75 48.1875 37.535156 49.339844 37.121094 C 50.625 36.671875 51.710938 35.929688 52.59375 34.886719 C 53.136719 34.28125 53.523438 33.582031 53.753906 32.800781 C 53.996094 31.8125 54.105469 30.8125 54.085938 29.792969 L 54.085938 28.332031 C 53.039062 28.082031 51.984375 27.886719 50.917969 27.75 C 49.84375 27.609375 48.765625 27.542969 47.683594 27.539062 C 45.8125 27.398438 44.105469 27.867188 42.566406 28.9375 C 42.015625 29.425781 41.601562 30.007812 41.3125 30.683594 C 41.027344 31.359375 40.898438 32.066406 40.925781 32.800781 C 40.878906 33.472656 40.964844 34.128906 41.183594 34.769531 C 41.402344 35.40625 41.738281 35.976562 42.191406 36.472656 C 42.679688 36.921875 43.234375 37.257812 43.855469 37.480469 C 44.476562 37.703125 45.117188 37.800781 45.777344 37.769531 Z M 73.441406 41.527344 C 72.960938 41.570312 72.519531 41.457031 72.117188 41.191406 C 71.742188 40.8125 71.5 40.359375 71.390625 39.835938 L 63.328125 12.992188 C 63.171875 12.539062 63.070312 12.070312 63.019531 11.59375 C 63 11.476562 63.011719 11.359375 63.046875 11.246094 C 63.085938 11.132812 63.144531 11.035156 63.230469 10.949219 C 63.3125 10.863281 63.410156 10.804688 63.523438 10.765625 C 63.636719 10.730469 63.75 10.71875 63.867188 10.738281 L 67.246094 10.738281 C 67.734375 10.6875 68.183594 10.800781 68.59375 11.070312 C 68.941406 11.460938 69.171875 11.914062 69.277344 12.429688 L 75.058594 35.390625 L 80.425781 12.429688 C 80.511719 11.910156 80.738281 11.464844 81.109375 11.09375 C 81.535156 10.828125 82 10.714844 82.5 10.757812 L 85.277344 10.757812 C 85.773438 10.714844 86.238281 10.828125 86.664062 11.09375 C 87.03125 11.472656 87.253906 11.925781 87.328125 12.449219 L 92.738281 35.703125 L 98.703125 12.449219 C 98.816406 11.933594 99.050781 11.480469 99.410156 11.09375 C 99.820312 10.820312 100.269531 10.707031 100.757812 10.757812 L 103.949219 10.757812 C 104.066406 10.738281 104.179688 10.75 104.292969 10.785156 C 104.40625 10.824219 104.503906 10.886719 104.585938 10.96875 C 104.671875 11.054688 104.730469 11.152344 104.769531 11.265625 C 104.804688 11.378906 104.816406 11.496094 104.796875 11.613281 C 104.816406 11.792969 104.816406 11.976562 104.796875 12.15625 C 104.730469 12.445312 104.648438 12.730469 104.550781 13.011719 L 96.257812 39.855469 C 96.152344 40.378906 95.910156 40.832031 95.535156 41.210938 C 95.128906 41.480469 94.6875 41.589844 94.207031 41.546875 L 91.183594 41.546875 C 90.675781 41.601562 90.214844 41.480469 89.792969 41.191406 C 89.429688 40.792969 89.207031 40.328125 89.128906 39.792969 L 83.761719 17.4375 L 78.457031 39.773438 C 78.378906 40.308594 78.160156 40.773438 77.792969 41.171875 C 77.375 41.460938 76.914062 41.578125 76.40625 41.527344 Z M 117.707031 42.445312 C 115.917969 42.445312 114.148438 42.246094 112.402344 41.839844 C 111.011719 41.558594 109.6875 41.089844 108.425781 40.441406 C 108.039062 40.277344 107.730469 40.015625 107.5 39.664062 C 107.269531 39.308594 107.15625 38.921875 107.160156 38.5 L 107.160156 36.746094 C 107.160156 36.023438 107.421875 35.660156 107.949219 35.660156 C 108.167969 35.664062 108.382812 35.707031 108.589844 35.785156 L 109.460938 36.140625 C 110.679688 36.683594 111.945312 37.085938 113.253906 37.351562 C 114.621094 37.632812 116 37.773438 117.398438 37.769531 C 119.1875 37.875 120.863281 37.492188 122.433594 36.621094 C 123.003906 36.277344 123.449219 35.8125 123.769531 35.226562 C 124.089844 34.640625 124.238281 34.011719 124.214844 33.34375 C 124.242188 32.40625 123.929688 31.597656 123.28125 30.921875 C 122.222656 30.027344 121.019531 29.414062 119.675781 29.085938 L 114.683594 27.5 C 112.527344 26.894531 110.738281 25.726562 109.316406 23.992188 C 108.171875 22.511719 107.597656 20.835938 107.59375 18.960938 C 107.566406 17.589844 107.875 16.304688 108.527344 15.101562 C 109.152344 13.976562 109.976562 13.023438 110.992188 12.238281 C 112.058594 11.425781 113.234375 10.824219 114.515625 10.445312 C 115.933594 10.035156 117.375 9.832031 118.847656 9.839844 C 119.625 9.839844 120.398438 9.886719 121.167969 9.984375 C 121.957031 10.082031 122.703125 10.214844 123.40625 10.382812 C 124.113281 10.550781 124.769531 10.730469 125.375 10.925781 C 125.878906 11.082031 126.359375 11.285156 126.828125 11.53125 C 127.222656 11.746094 127.5625 12.03125 127.84375 12.386719 C 128.066406 12.734375 128.171875 13.117188 128.152344 13.535156 L 128.152344 15.183594 C 128.152344 15.90625 127.890625 16.269531 127.367188 16.269531 C 126.898438 16.214844 126.453125 16.078125 126.039062 15.851562 C 123.925781 14.925781 121.714844 14.480469 119.40625 14.515625 C 117.792969 14.429688 116.269531 14.757812 114.828125 15.496094 C 114.289062 15.8125 113.871094 16.25 113.574219 16.808594 C 113.28125 17.363281 113.152344 17.957031 113.191406 18.585938 C 113.167969 19.558594 113.507812 20.378906 114.207031 21.046875 C 115.335938 21.957031 116.601562 22.597656 118 22.96875 L 122.890625 24.449219 C 125.007812 25.007812 126.785156 26.121094 128.214844 27.789062 C 129.34375 29.265625 129.882812 30.9375 129.832031 32.800781 C 129.851562 34.21875 129.546875 35.558594 128.917969 36.828125 C 128.308594 38.039062 127.472656 39.0625 126.414062 39.898438 C 125.257812 40.792969 123.980469 41.441406 122.578125 41.839844 C 120.984375 42.277344 119.359375 42.480469 117.707031 42.445312 Z M 117.707031 42.445312"/></g><g clip-path="url(#c)"><path fill="#F90" d="M 124.214844 59.539062 C 112.878906 67.972656 96.425781 72.460938 82.375 72.460938 C 77.675781 72.492188 73.015625 72.085938 68.390625 71.246094 C 63.765625 70.40625 59.257812 69.144531 54.867188 67.460938 C 50.476562 65.777344 46.277344 63.703125 42.269531 61.234375 C 38.257812 58.765625 34.511719 55.945312 31.023438 52.777344 C 29.964844 51.816406 30.898438 50.5 32.183594 51.230469 C 36.070312 53.472656 40.085938 55.449219 44.230469 57.160156 C 48.371094 58.875 52.609375 60.308594 56.9375 61.46875 C 61.265625 62.625 65.652344 63.496094 70.09375 64.078125 C 74.535156 64.660156 78.992188 64.949219 83.472656 64.945312 C 90.191406 64.910156 96.839844 64.210938 103.421875 62.851562 C 110.003906 61.492188 116.386719 59.496094 122.578125 56.867188 C 124.484375 56.054688 126.101562 58.140625 124.214844 59.539062 Z M 124.214844 59.539062" fill-rule="evenodd"/></g><g clip-path="url(#d)"><path fill="#F90" d="M 128.941406 54.113281 C 127.488281 52.234375 119.34375 53.234375 115.699219 53.675781 C 114.601562 53.800781 114.414062 52.839844 115.40625 52.128906 C 121.894531 47.539062 132.546875 48.851562 133.769531 50.398438 C 134.992188 51.941406 133.4375 62.691406 127.367188 67.828125 C 126.433594 68.621094 125.542969 68.203125 125.957031 67.160156 C 127.324219 63.691406 130.390625 55.992188 128.941406 54.113281 Z M 128.941406 54.113281" fill-rule="evenodd"/></g><g clip-path="url(#e)"><path fill="#252F3E" d="M 59.765625 32.488281 C 59.730469 33.539062 59.863281 34.566406 60.160156 35.578125 C 60.460938 36.4375 60.835938 37.265625 61.277344 38.0625 C 61.429688 38.300781 61.515625 38.566406 61.527344 38.855469 C 61.480469 39.308594 61.257812 39.648438 60.863281 39.875 L 58.792969 41.335938 C 58.515625 41.53125 58.214844 41.636719 57.878906 41.652344 C 57.472656 41.636719 57.132812 41.476562 56.863281 41.171875 C 56.378906 40.6875 55.964844 40.152344 55.621094 39.5625 C 55.273438 38.980469 54.921875 38.285156 54.5625 37.476562 C 53.957031 38.238281 53.273438 38.921875 52.511719 39.527344 C 51.746094 40.132812 50.925781 40.644531 50.050781 41.058594 C 49.171875 41.476562 48.257812 41.785156 47.308594 41.992188 C 46.359375 42.199219 45.398438 42.292969 44.429688 42.277344 C 43.164062 42.347656 41.933594 42.167969 40.742188 41.734375 C 39.546875 41.304688 38.484375 40.65625 37.550781 39.792969 C 36.683594 38.90625 36.03125 37.882812 35.589844 36.71875 C 35.152344 35.558594 34.960938 34.355469 35.019531 33.113281 C 34.964844 31.761719 35.203125 30.460938 35.734375 29.21875 C 36.261719 27.976562 37.035156 26.90625 38.046875 26.015625 C 39.246094 25.066406 40.574219 24.355469 42.03125 23.894531 C 43.488281 23.429688 44.976562 23.238281 46.503906 23.324219 C 47.722656 23.328125 48.941406 23.417969 50.148438 23.59375 C 51.421875 23.777344 52.738281 24.027344 54.109375 24.347656 L 54.109375 21.800781 C 54.207031 20.800781 54.117188 19.824219 53.832031 18.859375 C 53.550781 17.898438 53.09375 17.027344 52.46875 16.246094 C 51.671875 15.628906 50.785156 15.179688 49.816406 14.902344 C 48.84375 14.625 47.859375 14.539062 46.855469 14.640625 C 45.601562 14.648438 44.363281 14.800781 43.144531 15.101562 C 41.878906 15.40625 40.644531 15.800781 39.433594 16.289062 C 39.046875 16.46875 38.644531 16.625 38.234375 16.75 L 37.695312 16.75 C 37.210938 16.75 36.96875 16.386719 36.96875 15.664062 L 36.96875 14.015625 C 36.9375 13.585938 37.023438 13.183594 37.21875 12.804688 C 37.480469 12.476562 37.804688 12.234375 38.191406 12.074219 C 39.582031 11.402344 41.027344 10.878906 42.523438 10.507812 C 44.285156 10.050781 46.074219 9.828125 47.890625 9.839844 C 49.519531 9.695312 51.113281 9.867188 52.671875 10.355469 C 54.234375 10.839844 55.644531 11.609375 56.90625 12.65625 C 57.941406 13.824219 58.707031 15.148438 59.203125 16.632812 C 59.699219 18.113281 59.886719 19.636719 59.765625 21.195312 Z M 45.777344 37.769531 C 47 37.75 48.1875 37.535156 49.339844 37.121094 C 50.625 36.671875 51.710938 35.929688 52.59375 34.886719 C 53.136719 34.28125 53.523438 33.582031 53.753906 32.800781 C 53.996094 31.8125 54.105469 30.8125 54.085938 29.792969 L 54.085938 28.332031 C 53.039062 28.082031 51.984375 27.886719 50.917969 27.75 C 49.84375 27.609375 48.765625 27.542969 47.683594 27.539062 C 45.8125 27.398438 44.105469 27.867188 42.566406 28.9375 C 42.015625 29.425781 41.601562 30.007812 41.3125 30.683594 C 41.027344 31.359375 40.898438 32.066406 40.925781 32.800781 C 40.878906 33.472656 40.964844 34.128906 41.183594 34.769531 C 41.402344 35.40625 41.738281 35.976562 42.191406 36.472656 C 42.679688 36.921875 43.234375 37.257812 43.855469 37.480469 C 44.476562 37.703125 45.117188 37.800781 45.777344 37.769531 Z M 73.441406 41.527344 C 72.960938 41.570312 72.519531 41.457031 72.117188 41.191406 C 71.742188 40.8125 71.5 40.359375 71.390625 39.835938 L 63.328125 12.992188 C 63.171875 12.539062 63.070312 12.070312 63.019531 11.59375 C 63 11.476562 63.011719 11.359375 63.046875 11.246094 C 63.085938 11.132812 63.144531 11.035156 63.230469 10.949219 C 63.3125 10.863281 63.410156 10.804688 63.523438 10.765625 C 63.636719 10.730469 63.75 10.71875 63.867188 10.738281 L 67.246094 10.738281 C 67.734375 10.6875 68.183594 10.800781 68.59375 11.070312 C 68.941406 11.460938 69.171875 11.914062 69.277344 12.429688 L 75.058594 35.390625 L 80.425781 12.429688 C 80.511719 11.910156 80.738281 11.464844 81.109375 11.09375 C 81.535156 10.828125 82 10.714844 82.5 10.757812 L 85.277344 10.757812 C 85.773438 10.714844 86.238281 10.828125 86.664062 11.09375 C 87.03125 11.472656 87.253906 11.925781 87.328125 12.449219 L 92.738281 35.703125 L 98.703125 12.449219 C 98.816406 11.933594 99.050781 11.480469 99.410156 11.09375 C 99.820312 10.820312 100.269531 10.707031 100.757812 10.757812 L 103.949219 10.757812 C 104.066406 10.738281 104.179688 10.75 104.292969 10.785156 C 104.40625 10.824219 104.503906 10.886719 104.585938 10.96875 C 104.671875 11.054688 104.730469 11.152344 104.769531 11.265625 C 104.804688 11.378906 104.816406 11.496094 104.796875 11.613281 C 104.816406 11.792969 104.816406 11.976562 104.796875 12.15625 C 104.730469 12.445312 104.648438 12.730469 104.550781 13.011719 L 96.257812 39.855469 C 96.152344 40.378906 95.910156 40.832031 95.535156 41.210938 C 95.128906 41.480469 94.6875 41.589844 94.207031 41.546875 L 91.183594 41.546875 C 90.675781 41.601562 90.214844 41.480469 89.792969 41.191406 C 89.429688 40.792969 89.207031 40.328125 89.128906 39.792969 L 83.761719 17.4375 L 78.457031 39.773438 C 78.378906 40.308594 78.160156 40.773438 77.792969 41.171875 C 77.375 41.460938 76.914062 41.578125 76.40625 41.527344 Z M 117.707031 42.445312 C 115.917969 42.445312 114.148438 42.246094 112.402344 41.839844 C 111.011719 41.558594 109.6875 41.089844 108.425781 40.441406 C 108.039062 40.277344 107.730469 40.015625 107.5 39.664062 C 107.269531 39.308594 107.15625 38.921875 107.160156 38.5 L 107.160156 36.746094 C 107.160156 36.023438 107.421875 35.660156 107.949219 35.660156 C 108.167969 35.664062 108.382812 35.707031 108.589844 35.785156 L 109.460938 36.140625 C 110.679688 36.683594 111.945312 37.085938 113.253906 37.351562 C 114.621094 37.632812 116 37.773438 117.398438 37.769531 C 119.1875 37.875 120.863281 37.492188 122.433594 36.621094 C 123.003906 36.277344 123.449219 35.8125 123.769531 35.226562 C 124.089844 34.640625 124.238281 34.011719 124.214844 33.34375 C 124.242188 32.40625 123.929688 31.597656 123.28125 30.921875 C 122.222656 30.027344 121.019531 29.414062 119.675781 29.085938 L 114.683594 27.5 C 112.527344 26.894531 110.738281 25.726562 109.316406 23.992188 C 108.171875 22.511719 107.597656 20.835938 107.59375 18.960938 C 107.566406 17.589844 107.875 16.304688 108.527344 15.101562 C 109.152344 13.976562 109.976562 13.023438 110.992188 12.238281 C 112.058594 11.425781 113.234375 10.824219 114.515625 10.445312 C 115.933594 10.035156 117.375 9.832031 118.847656 9.839844 C 119.625 9.839844 120.398438 9.886719 121.167969 9.984375 C 121.957031 10.082031 122.703125 10.214844 123.40625 10.382812 C 124.113281 10.550781 124.769531 10.730469 125.375 10.925781 C 125.878906 11.082031 126.359375 11.285156 126.828125 11.53125 C 127.222656 11.746094 127.5625 12.03125 127.84375 12.386719 C 128.066406 12.734375 128.171875 13.117188 128.152344 13.535156 L 128.152344 15.183594 C 128.152344 15.90625 127.890625 16.269531 127.367188 16.269531 C 126.898438 16.214844 126.453125 16.078125 126.039062 15.851562 C 123.925781 14.925781 121.714844 14.480469 119.40625 14.515625 C 117.792969 14.429688 116.269531 14.757812 114.828125 15.496094 C 114.289062 15.8125 113.871094 16.25 113.574219 16.808594 C 113.28125 17.363281 113.152344 17.957031 113.191406 18.585938 C 113.167969 19.558594 113.507812 20.378906 114.207031 21.046875 C 115.335938 21.957031 116.601562 22.597656 118 22.96875 L 122.890625 24.449219 C 125.007812 25.007812 126.785156 26.121094 128.214844 27.789062 C 129.34375 29.265625 129.882812 30.9375 129.832031 32.800781 C 129.851562 34.21875 129.546875 35.558594 128.917969 36.828125 C 128.308594 38.039062 127.472656 39.0625 126.414062 39.898438 C 125.257812 40.792969 123.980469 41.441406 122.578125 41.839844 C 120.984375 42.277344 119.359375 42.480469 117.707031 42.445312 Z M 117.707031 42.445312"/></g><g clip-path="url(#f)"><path fill="#F90" d="M 124.214844 59.539062 C 112.878906 67.972656 96.425781 72.460938 82.375 72.460938 C 77.675781 72.492188 73.015625 72.085938 68.390625 71.246094 C 63.765625 70.40625 59.257812 69.144531 54.867188 67.460938 C 50.476562 65.777344 46.277344 63.703125 42.269531 61.234375 C 38.257812 58.765625 34.511719 55.945312 31.023438 52.777344 C 29.964844 51.816406 30.898438 50.5 32.183594 51.230469 C 36.070312 53.472656 40.085938 55.449219 44.230469 57.160156 C 48.371094 58.875 52.609375 60.308594 56.9375 61.46875 C 61.265625 62.625 65.652344 63.496094 70.09375 64.078125 C 74.535156 64.660156 78.992188 64.949219 83.472656 64.945312 C 90.191406 64.910156 96.839844 64.210938 103.421875 62.851562 C 110.003906 61.492188 116.386719 59.496094 122.578125 56.867188 C 124.484375 56.054688 126.101562 58.140625 124.214844 59.539062 Z M 124.214844 59.539062" fill-rule="evenodd"/></g><g clip-path="url(#g)"><path fill="#F90" d="M 128.941406 54.113281 C 127.488281 52.234375 119.34375 53.234375 115.699219 53.675781 C 114.601562 53.800781 114.414062 52.839844 115.40625 52.128906 C 121.894531 47.539062 132.546875 48.851562 133.769531 50.398438 C 134.992188 51.941406 133.4375 62.691406 127.367188 67.828125 C 126.433594 68.621094 125.542969 68.203125 125.957031 67.160156 C 127.324219 63.691406 130.390625 55.992188 128.941406 54.113281 Z M 128.941406 54.113281" fill-rule="evenodd"/></g></svg>