<svg xmlns="http://www.w3.org/2000/svg" width="165" viewBox="0 0 165 82.5" height="82.5" version="1.0"><defs><clipPath id="a"><path d="M 0.496094 0 L 164.503906 0 L 164.503906 82.003906 L 0.496094 82.003906 Z M 0.496094 0"/></clipPath></defs><g clip-path="url(#a)" fill="#FFF"><path d="M 0.496094 0 L 164.503906 0 L 164.503906 82.003906 L 0.496094 82.003906 Z M 0.496094 0"/><path d="M 0.496094 0 L 164.503906 0 L 164.503906 82.003906 L 0.496094 82.003906 Z M 0.496094 0"/></g><path fill="#222221" d="M 88.507812 40.363281 L 88.507812 23.097656 C 88.507812 21.21875 90.035156 19.695312 91.910156 19.695312 C 93.785156 19.695312 95.3125 21.21875 95.3125 23.097656 L 95.3125 39.121094 C 95.253906 39.121094 95.195312 39.117188 95.136719 39.117188 C 92.390625 39.117188 90.425781 39.738281 88.507812 40.363281 M 68.914062 39.117188 C 68.859375 39.117188 68.808594 39.121094 68.753906 39.121094 L 68.753906 23.117188 C 68.753906 21.238281 70.28125 19.714844 72.15625 19.714844 C 74.035156 19.714844 75.558594 21.238281 75.558594 23.117188 L 75.558594 40.371094 C 73.636719 39.742188 71.671875 39.117188 68.914062 39.117188 M 115.921875 39.671875 C 115.921875 39.671875 112.648438 41.636719 108.261719 41.640625 L 108.261719 21.457031 C 108.261719 14.632812 102.707031 9.078125 95.882812 9.078125 C 92.238281 9.078125 88.851562 10.640625 86.496094 13.386719 C 84.140625 10.640625 80.753906 9.078125 77.109375 9.078125 C 73.78125 9.078125 70.652344 10.390625 68.335938 12.722656 L 68.335938 9.855469 L 55.808594 9.855469 L 55.808594 41.640625 C 55.800781 41.640625 55.792969 41.640625 55.785156 41.640625 C 51.390625 41.640625 48.082031 39.753906 48.082031 39.753906 L 46.691406 42.289062 C 46.691406 42.289062 50.355469 44.527344 55.800781 44.527344 C 61.421875 44.527344 63.753906 42.007812 68.953125 42.007812 C 74.152344 42.007812 75.917969 44.53125 82.019531 44.53125 C 88.121094 44.53125 89.9375 42.007812 95.136719 42.007812 C 100.335938 42.007812 102.625 44.53125 108.246094 44.53125 C 113.40625 44.53125 117.3125 42.210938 117.3125 42.210938 Z M 115.921875 39.671875"/><path fill="#222221" d="M 75.132812 54.550781 C 73.75 54.074219 71.925781 53.691406 70.316406 53.355469 C 69.152344 53.109375 68.050781 52.878906 67.234375 52.640625 C 66.632812 52.464844 66.289062 52.03125 66.289062 51.453125 C 66.289062 49.980469 68.035156 49.820312 68.785156 49.820312 C 70.335938 49.820312 71.648438 50.945312 71.648438 52.277344 L 80.5 52.277344 C 80.5 46.480469 74.453125 43.839844 68.835938 43.839844 C 65.527344 43.839844 62.78125 44.675781 60.730469 46.066406 C 58.476562 47.597656 57.207031 49.765625 57.207031 52.523438 C 57.207031 56.4375 60.066406 58.796875 66.761719 60.414062 C 70.683594 61.359375 71.453125 61.644531 71.46875 62.796875 C 71.476562 63.121094 71.359375 63.398438 71.113281 63.648438 C 70.578125 64.191406 69.585938 64.433594 68.835938 64.433594 C 68.5 64.433594 67.636719 64.386719 66.835938 63.9375 C 66.054688 63.503906 65.589844 62.820312 65.457031 61.910156 L 56.34375 61.96875 C 56.34375 64.601562 57.824219 67.039062 60.507812 68.839844 C 62.839844 70.402344 65.886719 71.335938 68.664062 71.335938 C 74.726562 71.335938 81.25 68.40625 81.25 61.96875 C 81.25 57.035156 76.570312 55.042969 75.132812 54.550781"/><path fill="#222221" d="M 95.296875 51.636719 C 96.515625 51.636719 98.046875 52.410156 98.601562 54.863281 L 98.671875 55.1875 L 108.023438 55.1875 L 107.960938 54.722656 C 107.523438 51.4375 106.335938 48.832031 104.425781 46.984375 C 102.289062 44.917969 98.882812 43.867188 95.136719 43.867188 C 91.023438 43.867188 88 45.265625 85.597656 47.914062 C 83.378906 50.351562 82.160156 53.800781 82.160156 57.617188 C 82.160156 61.433594 83.378906 64.878906 85.597656 67.320312 C 88 69.964844 90.976562 71.363281 95.089844 71.363281 C 98.835938 71.363281 102.289062 70.316406 104.425781 68.246094 C 106.335938 66.398438 107.523438 63.792969 107.960938 60.507812 L 108.023438 60.042969 L 98.671875 60.042969 L 98.601562 60.367188 C 98.046875 62.820312 96.546875 63.59375 95.296875 63.59375 C 92.371094 63.59375 91.738281 59.429688 91.738281 57.617188 C 91.738281 55.796875 92.375 51.636719 95.296875 51.636719"/></svg>