<svg xmlns="http://www.w3.org/2000/svg" width="165" viewBox="0 0 165 82.5" height="82.5" version="1.0"><defs><clipPath id="a"><path d="M 0.496094 0 L 164.503906 0 L 164.503906 82.003906 L 0.496094 82.003906 Z M 0.496094 0"/></clipPath><clipPath id="b"><path d="M 22 22 L 61 22 L 61 60.433594 L 22 60.433594 Z M 22 22"/></clipPath><clipPath id="c"><path d="M 8.699219 22 L 34 22 L 34 60.433594 L 8.699219 60.433594 Z M 8.699219 22"/></clipPath><clipPath id="d"><path d="M 97 21.667969 L 115 21.667969 L 115 47 L 97 47 Z M 97 21.667969"/></clipPath><clipPath id="e"><path d="M 134 22 L 156.300781 22 L 156.300781 46 L 134 46 Z M 134 22"/></clipPath><clipPath id="f"><path d="M 65 50 L 74 50 L 74 60.433594 L 65 60.433594 Z M 65 50"/></clipPath><clipPath id="g"><path d="M 74 50 L 82 50 L 82 60.433594 L 74 60.433594 Z M 74 50"/></clipPath><clipPath id="h"><path d="M 82 50 L 91 50 L 91 60.433594 L 82 60.433594 Z M 82 50"/></clipPath><clipPath id="i"><path d="M 92 50 L 101 50 L 101 60.433594 L 92 60.433594 Z M 92 50"/></clipPath><clipPath id="j"><path d="M 102 50 L 111 50 L 111 60.433594 L 102 60.433594 Z M 102 50"/></clipPath><clipPath id="k"><path d="M 111 50 L 121 50 L 121 60.433594 L 111 60.433594 Z M 111 50"/></clipPath><clipPath id="l"><path d="M 121 50 L 129 50 L 129 60.433594 L 121 60.433594 Z M 121 50"/></clipPath><clipPath id="m"><path d="M 128 50 L 138 50 L 138 60.433594 L 128 60.433594 Z M 128 50"/></clipPath><clipPath id="n"><path d="M 138 50 L 147 50 L 147 60.433594 L 138 60.433594 Z M 138 50"/></clipPath><clipPath id="o"><path d="M 147 50 L 156.300781 50 L 156.300781 60.433594 L 147 60.433594 Z M 147 50"/></clipPath><clipPath id="p"><path d="M 65 47 L 156.300781 47 L 156.300781 49 L 65 49 Z M 65 47"/></clipPath></defs><g clip-path="url(#a)" fill="#FFF"><path d="M 0.496094 0 L 164.503906 0 L 164.503906 89.457031 L 0.496094 89.457031 Z M 0.496094 0"/><path d="M 0.496094 0 L 164.503906 0 L 164.503906 82.003906 L 0.496094 82.003906 Z M 0.496094 0"/><path d="M 0.496094 0 L 164.503906 0 L 164.503906 82.003906 L 0.496094 82.003906 Z M 0.496094 0"/></g><g clip-path="url(#b)"><path fill="#00043A" d="M 31.65625 37.628906 C 32.8125 38.84375 33.273438 40.519531 33.007812 42.164062 C 32.835938 43.203125 33.109375 44.257812 33.460938 45.238281 C 34.472656 48.066406 36.914062 49.738281 39.828125 50.378906 C 45.75 51.675781 51.453125 46.824219 51.136719 40.753906 C 50.980469 37.78125 49.359375 34.851562 46.746094 33.371094 C 45.765625 32.8125 44.585938 32.382812 43.441406 32.382812 C 42.835938 32.386719 42.257812 32.523438 41.644531 32.460938 C 40.835938 32.382812 40.050781 32.113281 39.367188 31.675781 C 36.8125 30.046875 36.191406 26.449219 38.0625 24.058594 C 39.898438 21.714844 43.441406 21.402344 45.648438 23.410156 C 46.882812 24.535156 47.449219 26.195312 47.308594 27.847656 C 47.183594 29.351562 47.230469 30.65625 47.917969 32.035156 C 48.714844 33.640625 50.015625 34.902344 51.609375 35.714844 C 52.226562 36.03125 52.882812 36.269531 53.566406 36.378906 C 54.398438 36.519531 55.207031 36.339844 56.039062 36.390625 C 57.613281 36.484375 59.082031 37.273438 60 38.566406 C 61.765625 41.058594 60.945312 44.601562 58.320312 46.125 C 57.609375 46.535156 56.804688 46.78125 55.984375 46.8125 C 55.1875 46.84375 54.425781 46.566406 53.628906 46.613281 C 52.273438 46.6875 50.984375 47.316406 49.886719 48.078125 C 48.375 49.128906 47.230469 50.703125 46.804688 52.511719 C 46.425781 54.101562 46.871094 55.714844 46.238281 57.273438 C 45.648438 58.730469 44.375 59.832031 42.867188 60.242188 C 39.839844 61.070312 36.753906 58.972656 36.371094 55.859375 C 36.277344 55.097656 36.417969 54.367188 36.4375 53.613281 C 36.457031 52.84375 36.324219 52.078125 36.074219 51.351562 C 35.730469 50.351562 35.171875 49.714844 34.46875 48.921875 C 33.179688 47.457031 31.191406 46.332031 29.214844 46.347656 C 28.46875 46.351562 27.761719 46.480469 27.007812 46.351562 C 26.199219 46.210938 25.425781 45.882812 24.765625 45.390625 C 23.558594 44.480469 22.796875 43.054688 22.703125 41.542969 C 22.523438 38.574219 24.957031 35.988281 27.929688 36.011719 C 29.328125 36.019531 30.6875 36.609375 31.65625 37.628906 Z M 31.65625 37.628906"/></g><g clip-path="url(#c)"><path fill="#00043A" d="M 20.675781 33.691406 C 21.746094 32.664062 22.585938 31.324219 22.902344 29.859375 C 23.148438 28.722656 22.867188 27.597656 23.035156 26.457031 C 23.207031 25.292969 23.753906 24.207031 24.617188 23.402344 C 28 20.253906 33.664062 22.976562 33.335938 27.59375 C 33.179688 29.808594 31.578125 31.734375 29.429688 32.277344 C 28.457031 32.523438 27.605469 32.316406 26.644531 32.273438 C 25.832031 32.238281 24.992188 32.433594 24.234375 32.707031 C 20.085938 34.203125 17.835938 38.917969 18.714844 43.148438 C 19.46875 46.769531 22.84375 50.507812 26.824219 50.035156 C 29.117188 49.761719 31.371094 51 32.289062 53.148438 C 33.125 55.097656 32.667969 57.417969 31.167969 58.910156 C 29.660156 60.402344 27.335938 60.828125 25.398438 59.96875 C 23.238281 59.003906 22.125 56.738281 22.375 54.425781 C 22.726562 51.203125 21.015625 48.34375 18.207031 46.839844 C 17.265625 46.332031 16.210938 46.003906 15.136719 46.023438 C 13.945312 46.046875 12.890625 46.136719 11.765625 45.636719 C 9.730469 44.726562 8.5 42.539062 8.742188 40.324219 C 8.984375 38.105469 10.691406 36.214844 12.878906 35.761719 C 14.027344 35.523438 15.089844 35.957031 16.230469 35.851562 C 17.261719 35.75 18.25 35.335938 19.136719 34.8125 C 19.675781 34.492188 20.21875 34.128906 20.675781 33.691406 Z M 20.675781 33.691406"/></g><path fill="#009CDC" d="M 47.035156 41.554688 C 47.035156 38.761719 44.777344 36.5 41.992188 36.5 C 39.207031 36.5 36.949219 38.761719 36.949219 41.554688 C 36.949219 44.347656 39.207031 46.613281 41.992188 46.613281 C 44.777344 46.613281 47.035156 44.347656 47.035156 41.554688 Z M 47.035156 41.554688"/><path fill="#00043A" d="M 75.945312 40.652344 L 81.941406 22.136719 L 86.449219 22.136719 L 77.957031 45.804688 L 73.984375 45.804688 L 65.523438 22.136719 L 70.011719 22.136719 Z M 75.945312 40.652344"/><path fill="#00043A" d="M 89.351562 22.136719 L 93.4375 22.136719 L 93.4375 45.804688 L 89.351562 45.804688 Z M 89.351562 22.136719"/><g clip-path="url(#d)"><path fill="#00043A" d="M 110.8125 39.707031 C 110.8125 38.667969 110.449219 37.867188 109.71875 37.304688 C 108.988281 36.738281 107.671875 36.171875 105.773438 35.597656 C 103.871094 35.023438 102.355469 34.382812 101.234375 33.679688 C 99.082031 32.324219 98.007812 30.558594 98.007812 28.378906 C 98.007812 26.472656 98.78125 24.902344 100.332031 23.667969 C 101.882812 22.429688 103.898438 21.8125 106.371094 21.8125 C 108.015625 21.8125 109.476562 22.117188 110.765625 22.722656 C 112.050781 23.332031 113.0625 24.195312 113.796875 25.316406 C 114.53125 26.4375 114.898438 27.679688 114.898438 29.046875 L 110.8125 29.046875 C 110.8125 27.8125 110.425781 26.84375 109.652344 26.144531 C 108.882812 25.445312 107.777344 25.097656 106.339844 25.097656 C 105 25.097656 103.957031 25.382812 103.21875 25.957031 C 102.476562 26.53125 102.109375 27.335938 102.109375 28.363281 C 102.109375 29.230469 102.507812 29.953125 103.308594 30.535156 C 104.109375 31.113281 105.425781 31.675781 107.261719 32.222656 C 109.101562 32.769531 110.574219 33.394531 111.6875 34.09375 C 112.800781 34.792969 113.617188 35.59375 114.136719 36.5 C 114.65625 37.402344 114.914062 38.460938 114.914062 39.675781 C 114.914062 41.648438 114.160156 43.21875 112.652344 44.382812 C 111.144531 45.546875 109.101562 46.128906 106.515625 46.128906 C 104.808594 46.128906 103.242188 45.8125 101.808594 45.179688 C 100.375 44.542969 99.261719 43.667969 98.46875 42.554688 C 97.675781 41.4375 97.277344 40.136719 97.277344 38.652344 L 101.378906 38.652344 C 101.378906 39.996094 101.820312 41.035156 102.707031 41.773438 C 103.59375 42.511719 104.863281 42.878906 106.515625 42.878906 C 107.945312 42.878906 109.015625 42.589844 109.734375 42.007812 C 110.453125 41.429688 110.8125 40.664062 110.8125 39.707031 Z M 110.8125 39.707031"/></g><path fill="#00043A" d="M 135.566406 25.453125 L 128.207031 25.453125 L 128.207031 45.804688 L 124.136719 45.804688 L 124.136719 25.453125 L 116.84375 25.453125 L 116.84375 22.136719 L 135.566406 22.136719 Z M 135.566406 25.453125"/><g clip-path="url(#e)"><path fill="#00043A" d="M 141.9375 36.976562 L 148.777344 36.976562 L 145.355469 27.160156 Z M 149.925781 40.292969 L 140.785156 40.292969 L 138.871094 45.804688 L 134.609375 45.804688 L 143.523438 22.136719 L 147.203125 22.136719 L 156.136719 45.804688 L 151.855469 45.804688 Z M 149.925781 40.292969"/></g><g clip-path="url(#f)"><path fill="#00043A" d="M 73.523438 51.609375 L 70.386719 51.609375 L 70.386719 60.285156 L 68.652344 60.285156 L 68.652344 51.609375 L 65.542969 51.609375 L 65.542969 50.195312 L 73.523438 50.195312 Z M 73.523438 51.609375"/></g><g clip-path="url(#g)"><path fill="#00043A" d="M 80.722656 55.78125 L 76.589844 55.78125 L 76.589844 58.886719 L 81.421875 58.886719 L 81.421875 60.285156 L 74.84375 60.285156 L 74.84375 50.195312 L 81.371094 50.195312 L 81.371094 51.609375 L 76.589844 51.609375 L 76.589844 54.394531 L 80.722656 54.394531 Z M 80.722656 55.78125"/></g><g clip-path="url(#h)"><path fill="#00043A" d="M 90.519531 57 C 90.417969 58.078125 90.023438 58.917969 89.332031 59.519531 C 88.640625 60.121094 87.722656 60.425781 86.574219 60.425781 C 85.773438 60.425781 85.066406 60.234375 84.457031 59.851562 C 83.847656 59.472656 83.375 58.929688 83.042969 58.226562 C 82.714844 57.527344 82.539062 56.710938 82.527344 55.78125 L 82.527344 54.839844 C 82.527344 53.886719 82.695312 53.050781 83.03125 52.324219 C 83.367188 51.597656 83.851562 51.039062 84.476562 50.648438 C 85.105469 50.253906 85.832031 50.058594 86.660156 50.058594 C 87.769531 50.058594 88.664062 50.359375 89.339844 50.960938 C 90.015625 51.566406 90.410156 52.417969 90.519531 53.523438 L 88.78125 53.523438 C 88.695312 52.796875 88.484375 52.273438 88.148438 51.953125 C 87.808594 51.632812 87.3125 51.472656 86.660156 51.472656 C 85.898438 51.472656 85.316406 51.75 84.90625 52.308594 C 84.5 52.863281 84.289062 53.683594 84.28125 54.757812 L 84.28125 55.652344 C 84.28125 56.746094 84.476562 57.578125 84.867188 58.152344 C 85.253906 58.722656 85.824219 59.011719 86.574219 59.011719 C 87.261719 59.011719 87.777344 58.855469 88.125 58.546875 C 88.46875 58.238281 88.6875 57.722656 88.78125 57 Z M 90.519531 57"/></g><g clip-path="url(#i)"><path fill="#00043A" d="M 100.070312 60.285156 L 98.328125 60.285156 L 98.328125 55.808594 L 93.832031 55.808594 L 93.832031 60.285156 L 92.082031 60.285156 L 92.082031 50.195312 L 93.832031 50.195312 L 93.832031 54.394531 L 98.328125 54.394531 L 98.328125 50.195312 L 100.070312 50.195312 Z M 100.070312 60.285156"/></g><g clip-path="url(#j)"><path fill="#00043A" d="M 110.117188 60.285156 L 108.371094 60.285156 L 103.886719 53.128906 L 103.886719 60.285156 L 102.136719 60.285156 L 102.136719 50.195312 L 103.886719 50.195312 L 108.382812 57.382812 L 108.382812 50.195312 L 110.117188 50.195312 Z M 110.117188 60.285156"/></g><g clip-path="url(#k)"><path fill="#00043A" d="M 118.464844 54.976562 C 118.464844 53.859375 118.253906 53.003906 117.832031 52.40625 C 117.410156 51.8125 116.8125 51.515625 116.039062 51.515625 C 115.285156 51.515625 114.695312 51.8125 114.265625 52.402344 C 113.839844 52.996094 113.625 53.835938 113.613281 54.921875 L 113.613281 55.503906 C 113.613281 56.613281 113.828125 57.46875 114.261719 58.074219 C 114.691406 58.679688 115.289062 58.984375 116.054688 58.984375 C 116.828125 58.984375 117.421875 58.6875 117.839844 58.097656 C 118.257812 57.503906 118.464844 56.640625 118.464844 55.503906 Z M 120.214844 55.503906 C 120.214844 56.492188 120.042969 57.359375 119.703125 58.105469 C 119.359375 58.851562 118.875 59.425781 118.242188 59.824219 C 117.605469 60.222656 116.878906 60.425781 116.054688 60.425781 C 115.238281 60.425781 114.511719 60.222656 113.875 59.824219 C 113.234375 59.425781 112.742188 58.855469 112.394531 58.117188 C 112.046875 57.378906 111.871094 56.527344 111.867188 55.558594 L 111.867188 54.992188 C 111.867188 54.007812 112.039062 53.140625 112.386719 52.386719 C 112.734375 51.632812 113.226562 51.058594 113.859375 50.65625 C 114.492188 50.257812 115.21875 50.058594 116.039062 50.058594 C 116.859375 50.058594 117.585938 50.257812 118.21875 50.652344 C 118.851562 51.046875 119.34375 51.613281 119.6875 52.355469 C 120.035156 53.097656 120.207031 53.960938 120.214844 54.941406 Z M 120.214844 55.503906"/></g><g clip-path="url(#l)"><path fill="#00043A" d="M 123.703125 58.886719 L 128.269531 58.886719 L 128.269531 60.285156 L 121.953125 60.285156 L 121.953125 50.195312 L 123.703125 50.195312 Z M 123.703125 58.886719"/></g><g clip-path="url(#m)"><path fill="#00043A" d="M 135.449219 54.976562 C 135.449219 53.859375 135.238281 53.003906 134.816406 52.40625 C 134.394531 51.8125 133.796875 51.515625 133.023438 51.515625 C 132.269531 51.515625 131.679688 51.8125 131.25 52.402344 C 130.824219 52.996094 130.609375 53.835938 130.597656 54.921875 L 130.597656 55.503906 C 130.597656 56.613281 130.8125 57.46875 131.246094 58.074219 C 131.675781 58.679688 132.273438 58.984375 133.039062 58.984375 C 133.8125 58.984375 134.40625 58.6875 134.824219 58.097656 C 135.242188 57.503906 135.449219 56.640625 135.449219 55.503906 Z M 137.199219 55.503906 C 137.199219 56.492188 137.027344 57.359375 136.6875 58.105469 C 136.347656 58.851562 135.859375 59.425781 135.226562 59.824219 C 134.59375 60.222656 133.863281 60.425781 133.039062 60.425781 C 132.222656 60.425781 131.496094 60.222656 130.859375 59.824219 C 130.21875 59.425781 129.726562 58.855469 129.378906 58.117188 C 129.03125 57.378906 128.855469 56.527344 128.851562 55.558594 L 128.851562 54.992188 C 128.851562 54.007812 129.023438 53.140625 129.371094 52.386719 C 129.71875 51.632812 130.210938 51.058594 130.84375 50.65625 C 131.476562 50.257812 132.203125 50.058594 133.023438 50.058594 C 133.84375 50.058594 134.570312 50.257812 135.203125 50.652344 C 135.835938 51.046875 136.328125 51.613281 136.671875 52.355469 C 137.019531 53.097656 137.195312 53.960938 137.199219 54.941406 Z M 137.199219 55.503906"/></g><g clip-path="url(#n)"><path fill="#00043A" d="M 146.652344 58.976562 C 146.285156 59.453125 145.78125 59.8125 145.136719 60.058594 C 144.492188 60.300781 143.761719 60.425781 142.941406 60.425781 C 142.097656 60.425781 141.351562 60.230469 140.703125 59.847656 C 140.050781 59.464844 139.550781 58.917969 139.199219 58.203125 C 138.847656 57.488281 138.664062 56.65625 138.648438 55.707031 L 138.648438 54.914062 C 138.648438 53.390625 139.011719 52.199219 139.742188 51.34375 C 140.46875 50.488281 141.484375 50.058594 142.789062 50.058594 C 143.90625 50.058594 144.796875 50.335938 145.457031 50.894531 C 146.113281 51.449219 146.511719 52.25 146.644531 53.292969 L 144.929688 53.292969 C 144.738281 52.078125 144.035156 51.472656 142.824219 51.472656 C 142.039062 51.472656 141.445312 51.753906 141.035156 52.320312 C 140.628906 52.886719 140.417969 53.714844 140.40625 54.808594 L 140.40625 55.585938 C 140.40625 56.671875 140.632812 57.519531 141.09375 58.121094 C 141.550781 58.722656 142.1875 59.023438 143.003906 59.023438 C 143.894531 59.023438 144.53125 58.820312 144.910156 58.414062 L 144.910156 56.441406 L 142.835938 56.441406 L 142.835938 55.109375 L 146.652344 55.109375 Z M 146.652344 58.976562"/></g><g clip-path="url(#o)"><path fill="#00043A" d="M 151.855469 54.976562 L 154.167969 50.195312 L 156.105469 50.195312 L 152.730469 56.570312 L 152.730469 60.285156 L 150.976562 60.285156 L 150.976562 56.570312 L 147.597656 50.195312 L 149.539062 50.195312 Z M 151.855469 54.976562"/></g><g clip-path="url(#p)"><path fill="#00043A" d="M 65.535156 47.601562 L 156.117188 47.601562 L 156.117188 48.386719 L 65.535156 48.386719 Z M 65.535156 47.601562"/></g></svg>